<svg fill="none" height="100" viewBox="0 0 100 100" width="100" xmlns="http://www.w3.org/2000/svg" xmlns:xlink="http://www.w3.org/1999/xlink"><clipPath id="a"><path d="m0 0h100v100h-100z"/></clipPath><g clip-path="url(#a)" fill="#000"><path d="m49.2773 50.7311c2.3873 2.3873 6.272 2.3873 8.6593 0 2.3877-2.3878 2.3877-6.2725.0005-8.6598-2.3878-2.3877-6.2725-2.3877-8.6603 0-2.3873 2.3873-2.3873 6.272.0005 8.6598zm6.6395-6.6395c1.2735 1.2736 1.273 3.3457-.0005 4.6192-1.2736 1.2735-3.3452 1.2735-4.6187 0-1.2736-1.2735-1.274-3.3456-.0005-4.6192 1.2735-1.2735 3.3461-1.2735 4.6197 0zm-17.0671 17.0671c2.3873 2.3872 6.2721 2.3872 8.6598-.0005 2.3878-2.3878 2.3878-6.2725.0005-8.6598-2.3878-2.3878-6.2725-2.3878-8.6603 0-2.3877 2.3878-2.3877 6.2725 0 8.6603zm6.64-6.64c1.2735 1.2735 1.2731 3.3456-.0005 4.6192-1.2735 1.2735-3.3456 1.274-4.6192.0005-1.2735-1.2736-1.2735-3.3462 0-4.6197 1.2736-1.2736 3.3462-1.2736 4.6197 0z"/><path d="m10.8792 46.8034c-1.43286 1.9251-2.45928 4.0554-3.0492 6.3322-.12873.4947.01776 1.0141.3719 1.3683.04884.0488.10161.0947.15833.1366.46661.3472 1.09697.3768 1.59415.075 4.63282-2.8148 10.24022-2.8333 14.68962-.1992l-2.2196 2.9061c-.4345.5687-.3807 1.3712.1253 1.8772l1.356 1.356c-5.7683 5.9359-8.6716 13.9688-7.9629 22.1148.0301.3458.182.6555.4128.8863.2314.2314.5416.3838.8879.4134 8.1417.7004 16.1702-2.2075 22.1007-7.976l1.3562 1.3562c.5061.5061 1.3086.5598 1.8773.1253l2.9059-2.2196c2.6343 4.4496 2.6157 10.0568-.199 14.6897-.3019.4971-.2723 1.1275.0749 1.5941.042.0567.0878.1095.1367.1583.3541.3542.8735.5007 1.3682.3719 2.2768-.5899 4.4071-1.6163 6.3322-3.0492 7.4185-5.5208 9.3398-15.6607 4.6462-23.2047l5.1372-3.9239c1.893-1.4452 3.4906-2.9086 4.8845-4.4732 3.4795-3.907 6.4685-8.4405 8.919-13.4368.0307-.053.0771-.0919.1014-.1499.0148-.0356.0099-.0728.0217-.1089 3.8038-7.8401 6.2801-16.8122 7.1746-26.3494.0789-.8464-.7092-1.6346-1.5556-1.5557-9.5515.8962-18.5367 3.3785-26.3849 7.1918-.0214.0078-.0437.0041-.0651.013-.0347.0145-.0567.0438-.0897.0606-5.0234 2.4567-9.5809 5.4564-13.5054 8.9513-1.5636 1.3939-3.027 2.9915-4.4732 4.8846l-3.9238 5.1375c-7.5441-4.6928-17.6836-2.7718-23.2043 4.6463zm40.6118 40.0258c-.697.5184-1.425.9742-2.1801 1.3643 1.7224-4.8781 1.199-10.2312-1.5153-14.6028l7.7759-5.9391c3.7348 6.2721 2.0623 14.6063-4.0805 19.1776zm-32.7792-5.5306c-.2594-6.8807 2.3271-13.5897 7.2087-18.6282l1.9008 1.9008c-2.2312 2.6035-3.3427 5.9555-3.0461 9.3599.0301.3457.182.6555.4129.8863.2313.2313.5415.3838.8878.4133 3.4028.2919 6.7524-.8218 9.3527-3.0522l1.901 1.901c-5.034 4.8821-11.7401 7.4726-18.6178 7.2191zm11.1265-14.7104 3.5735 3.5735c-1.6632 1.3663-3.7012 2.1515-5.8177 2.2477.0937-2.117.8779-4.156 2.2442-5.8212zm51.2164-47.6434c-.9363 8.1182-3.0556 15.7707-6.1973 22.5616-7.5365-3.4547-12.9072-8.8275-16.3603-16.3658 6.7896-3.1405 14.4409-5.2594 22.5576-6.1958zm-36.6733 15.324c3.3895-3.0188 7.2794-5.6525 11.5521-7.8662 1.8544 4.0142 4.261 7.5089 7.2117 10.4596 2.9487 2.9487 6.4397 5.3537 10.4498 7.2076-2.2134 4.2711-4.8466 8.16-7.8647 11.5488-1.2706 1.4274-2.7375 2.769-4.4845 4.1028l-19.409 14.8247-1.4748-1.4748-3.8852-3.8852-5.6634-5.6634-3.8852-3.8852-1.4743-1.4743 8.1603-10.6843 1.9284-2.5246c.0001-.0001-.0001.0001 0 0l4.7356-6.2005c1.3342-1.7466 2.6763-3.214 4.1032-4.485zm-12.033 10.1597-5.9386 7.7754c-4.3721-2.7138-9.7252-3.2371-14.6033-1.5147.3901-.7552.8459-1.4832 1.3643-2.1801 4.5713-6.1428 12.9061-7.8149 19.1776-4.0806z"/></g></svg>