<svg xmlns="http://www.w3.org/2000/svg" data-name="Layer 1" viewBox="0 0 560 560"><path d="M108.94 55a36.323 36.323 0 0 1 4.04 8.81 36.991 36.991 0 1 1-4.04-8.81z" fill="#a5e2fb"/><g fill="#b0b5ca"><path d="M59.5734 422.1618 143.667 269.818l10.5 5.796-84.0937 152.3437zM29.727 418.761l26.845-310.9035 11.952 1.032L41.679 419.793zM109.293 68.542l169.17 131.407 7.361-9.476L120.432 62H246l2-12H107v12h7.375zM174.0911 271.6936l6.24-10.248 135.4931 82.5017-6.24 10.248zM81.436 455.08l3.001 11.619L313 408.25l-8.5-11zM302.599 238.171l37.088 106 11.345-3.91-37.088-106zM183.22 250.691l101.667-22.539-2.652-11.703-101.666 22.539zM87.1906 110.8336l10.98-4.848 56.4654 127.8859-10.98 4.848zM464.218 235.307l-90.561 120.981 9.607 7.191L477.25 238zM283.6068 91.3357l11.94-1.188 9.6732 97.2205-11.94 1.188zM463.042 182.302 311.25 50l-2.416 14.291 146.34 127.072zM323.256 206.1605l118.775-.2376.024 12-118.775.2376z"/></g><path d="M80.041 207.755c-.155 0-.31 0-.466-.018a6 6 0 0 1-5.523-6.442l.5-6.544a6 6 0 0 1 11.965.919l-.5 6.544a6 6 0 0 1-5.976 5.541zM70.092 311.238a6.094 6.094 0 0 1-.616-.031 6 6 0 0 1-5.361-6.578l8.113-79.574a6 6 0 0 1 11.939 1.216l-8.113 79.575a6 6 0 0 1-5.962 5.392z" fill="#d4e1f4"/><path d="M382.211 357.839a46.5 46.5 0 1 1-40.851-24.268 46.254 46.254 0 0 1 40.851 24.268z" fill="#4689d3"/><circle cx="77.659" cy="74.625" fill="#a5e2fb" r="40.5"/><circle cx="50.286" cy="450.416" fill="#53d8d8" r="38.5"/><circle cx="280.306" cy="59.761" fill="#f3ce7d" r="36"/><circle cx="160.298" cy="252.63" fill="#5fcda4" r="26.5"/><circle cx="299.212" cy="212.16" fill="#6994fe" r="28"/><circle cx="469.021" cy="211.923" fill="#8f8fb7" r="30.5"/><path d="M65.674 74.625a40.51 40.51 0 0 1 26.243-37.912 40.5 40.5 0 1 0 0 75.823 40.509 40.509 0 0 1-26.243-37.911z" fill="#85bbcc"/><path d="M40.982 450.416a38.5 38.5 0 0 1 23.9-35.627 38.5 38.5 0 1 0 0 71.254 38.5 38.5 0 0 1-23.9-35.627z" fill="#44aaa7"/></svg>