<svg enable-background="new 0 0 481.882 481.882" viewBox="0 0 481.882 481.882" xmlns="http://www.w3.org/2000/svg"><path d="m346.353 159.624c2.409-8.433 3.614-17.468 3.614-27.106s-1.205-18.071-3.614-27.106l16.866-15.059c2.409-2.409 3.614-6.626 1.807-9.638l-17.468-30.118c-1.807-3.012-5.421-4.819-9.035-3.614l-21.082 7.228c-13.252-12.047-29.515-21.082-46.984-26.504l-4.217-21.683c-.602-3.615-3.614-6.024-7.228-6.024h-34.936c-3.614 0-6.626 2.409-7.228 6.024l-4.216 21.685c-18.071 4.819-33.732 14.456-46.381 27.106l-21.082-7.228c-3.614-1.205-7.228 0-9.035 3.614l-18.673 30.118c-1.807 3.012-1.205 7.228 1.807 9.638l16.264 14.456c-2.409 8.433-3.614 17.468-3.614 27.106s1.205 18.071 3.614 27.106l-16.866 15.059c-2.409 2.409-3.614 6.626-1.807 9.638l17.468 30.118c1.807 3.012 5.421 4.819 9.035 3.614l21.082-7.228c12.649 12.649 28.913 21.685 46.381 27.106l4.216 21.685c.602 3.614 3.614 6.024 7.228 6.024h34.936c3.614 0 6.626-2.409 7.228-6.024l4.216-21.685c18.071-4.819 33.732-14.456 46.381-27.106l21.082 7.228c3.614 1.205 7.228 0 9.035-3.614l17.468-30.118c1.807-3.012 1.205-7.228-1.807-9.638zm-105.412 49.995c-42.165 0-77.101-34.334-77.101-77.101s34.334-77.101 77.101-77.101c42.165 0 77.101 34.334 77.101 77.101s-34.936 77.101-77.101 77.101z" fill="#44c4a1"/><path d="m240.941 214.438c-45.176 0-81.92-36.744-81.92-81.92s36.744-81.92 81.92-81.92 81.92 36.744 81.92 81.92-36.743 81.92-81.92 81.92zm0-154.805c-39.755 0-72.885 32.527-72.885 72.885s32.527 72.885 72.885 72.885 72.885-32.527 72.885-72.885-33.13-72.885-72.885-72.885z" fill="#3ea69b"/><circle cx="240.941" cy="132.518" fill="#3ea69b" r="39.153"/><path d="m458.993 136.734v304.188h-436.104v-304.188c0-6.024 4.819-11.445 11.445-11.445h413.816c6.024 0 10.843 4.819 10.843 11.445z" fill="#3a556a"/><path d="m0 440.32h481.882v31.322h-481.882z" fill="#ebf0f3"/><path d="m481.28 471.642h-480.678l33.13 10.24h414.419zm-274.071-19.275h67.464v7.228h-67.464z" fill="#d5d6db"/><path d="m49.393 149.384h383.096v266.842h-383.096z" fill="#64798a"/><path d="m156.009 308.405-9.638 21.685h-16.866l42.165-95.172h16.866l42.165 95.172h-16.866l-9.638-21.685zm40.96-14.457-17.468-39.153-17.468 39.153zm110.833-50.597c6.626 5.421 9.638 13.854 9.638 25.299s-3.614 19.878-10.24 25.299-16.866 7.831-31.322 7.831h-16.866v27.708h-16.264v-94.569h32.527c15.059-.001 25.901 3.01 32.527 8.432zm-11.444 39.153c3.012-3.614 4.819-8.433 4.819-15.059s-1.807-11.445-6.024-13.854c-4.216-3.012-10.24-4.216-19.275-4.216h-16.264v37.948h18.673c9.035.602 15.059-1.205 18.071-4.819zm40.357-47.586h15.661v95.172h-16.264v-95.172z" fill="#fff"/><path d="m85.534 187.332h33.732v18.673h-33.732zm54.212 0h252.988v18.673h-252.988zm222.87 172.453h33.732v18.673h-33.732zm-276.781 0h252.988v18.673h-252.988z" fill="#fcd462"/></svg>