<svg fill="none" height="40" viewBox="0 0 120 40" width="120" xmlns="http://www.w3.org/2000/svg" xmlns:xlink="http://www.w3.org/1999/xlink"><clipPath id="a"><path d="m.050201 0h119.664v40h-119.664z"/></clipPath><g clip-path="url(#a)"><path d="m110.185.00013h-100.60012c-.3667 0-.729 0-1.09473.002-.30615.002-.60986.00781-.91895.0127-.67149.0079018-1.34139.0669763-2.0039.17671-.66157.112123-1.30243.323506-1.90088.627-.59772.30606-1.14387.70376-1.61865 1.17866-.47727.47357-.87511 1.02095-1.178219 1.62109-.303949.59895-.514709 1.24078-.625 1.90332-.111339.66171-.1712512 1.33104-.1791996 2.002-.00928.3066-.01026.61422-.01515.92086v23.11423c.00489.3105.00587.6113.01515.9219.0079508.671.0678636 1.3403.1791996 2.0019.109986.663.320759 1.3052.625 1.9043.302979.5982.700869 1.1434 1.178219 1.6143.47298.477 1.01948.875 1.61865 1.1787.59845.3043 1.23923.517 1.90088.6308.66262.1089 1.33246.168 2.0039.1768.30909.0068.6128.0107.91895.0107.36572.002.72805.002 1.09473.002h100.60012c.359 0 .725 0 1.084-.002.305 0 .617-.0039.922-.0107.67-.0083 1.339-.0674 2-.1768.664-.1146 1.307-.3272 1.908-.6308.599-.3039 1.145-.7018 1.617-1.1787.476-.4727.875-1.0175 1.182-1.6143.302-.5996.511-1.2417.619-1.9043.111-.6617.174-1.3309.186-2.0019.003-.3106.003-.6114.003-.9219.008-.3633.008-.7246.008-1.0938v-20.92864c0-.36621 0-.72949-.008-1.09179 0-.30664 0-.61426-.003-.9209-.012-.67102-.075-1.3402-.186-2.002-.109-.66216-.317-1.30394-.619-1.90332-.617-1.20292-1.596-2.18209-2.799-2.7998-.601-.302753-1.244-.51408-1.908-.627-.661-.1102172-1.33-.1693122-2-.17676-.305-.00488-.617-.01074-.922-.01269-.359-.002-.725-.00187-1.084-.00187z" fill="#a6a6a6"/><path d="m8.49504 39.125c-.30468 0-.602-.0039-.90429-.0107-.62622-.0082-1.25097-.0627-1.86914-.1631-.57641-.0993-1.1348-.2839-1.65674-.5479-.51716-.2618-.98885-.605-1.397-1.0166-.41406-.4067-.75879-.8785-1.02051-1.3965-.26461-.5214-.44774-1.0803-.543-1.6572-.10288-.6199-.158538-1.2467-.166502-1.875-.00634-.2109-.01464-.9131-.01464-.9131v-23.10056s.00884-.69141.01469-.89454c.007626-.62732.062962-1.25315.165532-1.87207.09544-.57848.2787-1.13898.54346-1.6621.26076-.51769.60357-.98977 1.01514-1.39795.4111-.41206.8843-.75708 1.40234-1.02247.52074-.26312 1.07807-.44648 1.65332-.54394.62019-.101434 1.24712-.156274 1.87551-.16406l.90232-.01221h102.76847l.913.0127c.623.007399 1.244.06175 1.859.16259.581.09869 1.144.28333 1.67.54785 1.038.53485 1.883 1.38102 2.415 2.41993.261.51951.441 1.07544.536 1.64892.103.624.162 1.25475.173 1.88721.003.2832.003.5874.003.89014.008.375.008.73193.008 1.09179v20.92867c0 .3633 0 .7178-.008 1.0752 0 .3252 0 .6231-.004.9297-.011.6212-.068 1.2407-.17 1.8535-.094.5811-.276 1.1443-.54 1.67-.264.5124-.607.9801-1.016 1.3857-.409.4138-.881.759-1.399 1.0225-.526.266-1.088.4513-1.668.5498-.619.101-1.243.1555-1.87.1631-.293.0068-.599.0107-.897.0107l-1.084.002z" fill="#000"/><g fill="#fff"><path d="m24.8191 20.3007c.0107-.8347.2324-1.653.6445-2.379.412-.726 1.0009-1.3359 1.712-1.7731-.4517-.6451-1.0477-1.1761-1.7405-1.5506-.6928-.3746-1.4634-.5824-2.2506-.607-1.6793-.1763-3.3072 1.0048-4.1629 1.0048-.8723 0-2.1898-.9873-3.6085-.9582-.9177.0297-1.812.2965-2.5959.7746s-1.4306 1.151-1.877 1.9533c-1.93405 3.3484-.4915 8.2695 1.3612 10.9761.9269 1.3253 2.0101 2.8058 3.4276 2.7533 1.387-.0575 1.9051-.8845 3.5794-.8845 1.6587 0 2.1448.8845 3.591.8511 1.4884-.0241 2.4261-1.3312 3.3205-2.6691.666-.9444 1.1784-1.9881 1.5184-3.0925-.8647-.3658-1.6026-.9779-2.1217-1.7602-.5192-.7823-.7965-1.7001-.7975-2.639z"/><path d="m22.0874 12.2109c.8116-.9742 1.2114-2.22639 1.1146-3.49062-1.2399.13022-2.3851.72278-3.2076 1.65962-.4022.4577-.7102.9901-.9064 1.5669-.1963.5767-.2769 1.1865-.2373 1.7945.6201.0064 1.2336-.1281 1.7943-.3931.5606-.2651 1.0538-.654 1.4424-1.1373z"/><path d="m42.3524 27.1396h-4.7334l-1.1367 3.3565h-2.0049l4.4834-12.418h2.083l4.4834 12.418h-2.039zm-4.2431-1.5488h3.752l-1.8496-5.4473h-.0518z"/><path d="m55.2099 25.9697c0 2.8135-1.5059 4.6211-3.7784 4.6211-.5756.0301-1.1481-.1025-1.6519-.3826-.5038-.2802-.9185-.6965-1.1967-1.2014h-.043v4.4844h-1.8584v-12.0488h1.7989v1.5058h.0342c.2909-.5024.7126-.9166 1.2203-1.1985.5076-.2818 1.0821-.4208 1.6625-.4021 2.2978.0001 3.8125 1.8165 3.8125 4.6221zm-1.9102 0c0-1.833-.9473-3.0381-2.3926-3.0381-1.4199 0-2.375 1.2305-2.375 3.0381 0 1.8242.9551 3.0459 2.375 3.0459 1.4453 0 2.3926-1.1963 2.3926-3.0459z"/><path d="m65.1747 25.9697c0 2.8135-1.5058 4.6211-3.7783 4.6211-.5757.0301-1.1482-.1025-1.652-.3826-.5037-.2802-.9185-.6965-1.1966-1.2014h-.043v4.4844h-1.8584v-12.0488h1.7988v1.5058h.0342c.2909-.5024.7126-.9166 1.2203-1.1985.5076-.2818 1.0822-.4208 1.6625-.4021 2.2979 0 3.8125 1.8164 3.8125 4.6221zm-1.9101 0c0-1.833-.9473-3.0381-2.3926-3.0381-1.4199 0-2.375 1.2305-2.375 3.0381 0 1.8242.9551 3.0459 2.375 3.0459 1.4453 0 2.3926-1.1963 2.3926-3.0459z"/><path d="m71.7607 27.0361c.1377 1.2315 1.334 2.04 2.9687 2.04 1.5664 0 2.6934-.8086 2.6934-1.9189 0-.9639-.6797-1.541-2.2891-1.9365l-1.6094-.3877c-2.2802-.5508-3.3388-1.6172-3.3388-3.3477 0-2.1426 1.8671-3.6143 4.5185-3.6143 2.624 0 4.4229 1.4717 4.4834 3.6143h-1.876c-.1123-1.2393-1.1367-1.9873-2.6338-1.9873-1.497 0-2.5215.7568-2.5215 1.8584 0 .8779.6543 1.3945 2.2549 1.79l1.3682.3359c2.5478.6026 3.6064 1.626 3.6064 3.4424 0 2.3233-1.8506 3.7783-4.7939 3.7783-2.7539 0-4.6133-1.4209-4.7334-3.667z"/><path d="m83.3964 19.2998v2.1426h1.7217v1.4717h-1.7217v4.9912c0 .7754.3447 1.1367 1.1015 1.1367.2044-.0036.4085-.0179.6114-.043v1.4629c-.3403.0636-.6861.0924-1.0323.0859-1.833 0-2.5478-.6885-2.5478-2.4443v-5.1894h-1.3164v-1.4717h1.3164v-2.1426z"/><path d="m86.1152 25.9697c0-2.8486 1.6777-4.6386 4.2939-4.6386 2.625 0 4.2949 1.79 4.2949 4.6386 0 2.8565-1.6611 4.6387-4.2949 4.6387-2.6328 0-4.2939-1.7822-4.2939-4.6387zm6.6953 0c0-1.9541-.8955-3.1074-2.4014-3.1074-1.5058 0-2.4004 1.1621-2.4004 3.1074 0 1.9619.8946 3.1065 2.4004 3.1065 1.5059 0 2.4014-1.1446 2.4014-3.1065z"/><path d="m96.2362 21.4424h1.7725v1.541h.043c.1199-.4813.4019-.9066.7985-1.2045s.8836-.4502 1.3788-.4313c.215-.0007.428.0226.637.0694v1.7383c-.27-.0827-.552-.1206-.835-.1123-.2698-.011-.539.0366-.7888.1395-.2499.1029-.4745.2586-.6585.4565-.1839.1979-.3229.4333-.4073.6899-.0845.2567-.1123.5286-.0818.7971v5.3701h-1.8584z"/><path d="m109.434 27.8369c-.25 1.6436-1.85 2.7715-3.898 2.7715-2.634 0-4.269-1.7647-4.269-4.5957 0-2.8398 1.644-4.6816 4.191-4.6816 2.505 0 4.08 1.7207 4.08 4.4658v.6367h-6.395v.1123c-.029.3332.013.6689.123.9847s.286.6046.517.8472c.23.2425.509.4333.819.5596s.643.1852.977.1729c.439.0412.88-.0605 1.257-.29.376-.2294.669-.5743.834-.9834zm-6.282-2.7021h4.527c.016-.2996-.029-.5994-.134-.8807-.104-.2812-.266-.5377-.475-.7535-.208-.2157-.459-.3861-.737-.5003-.277-.1142-.575-.1698-.875-.1634-.303-.0018-.603.0564-.883.1711s-.534.2838-.749.4974c-.214.2137-.384.4676-.5.7473-.115.2796-.175.5794-.174.8821z"/><path d="m37.8764 8.73101c.3896-.02796.7806.0309 1.1447.17234.3641.14143.6923.36191.9609.64554.2686.28362.4708.62331.5922.99461.1215.3713.1589.7648.1098 1.1524 0 1.9062-1.0303 3.002-2.8076 3.002h-2.1553v-5.96689zm-1.2285 5.12299h1.125c.2784.0167.557-.029.8155-.1336.2586-.1046.4905-.2656.679-.4711.1885-.2056.3288-.4506.4107-.7172.0818-.2666.1032-.5482.0626-.8241.0377-.2748.0141-.5546-.069-.8193-.0831-.2646-.2238-.5076-.4118-.7116-.1881-.20388-.4189-.36369-.676-.46793-.2571-.10423-.534-.15032-.811-.13495h-1.125z"/><path d="m41.7309 12.4443c-.0283-.2959.0055-.5944.0994-.8765.0938-.2821.2456-.5414.4455-.7614.2-.22.4437-.3957.7155-.516.2719-.1203.5659-.1824.8631-.1824.2973 0 .5913.0621.8631.1824.2719.1203.5156.296.7155.516.2.22.3517.4793.4456.7614.0938.2821.1277.5806.0994.8765.0288.2963-.0046.5953-.0982.8778s-.2453.5423-.4453.7627-.4439.3966-.716.5171c-.2721.1206-.5664.1828-.8641.1828-.2976 0-.5919-.0622-.864-.1828-.2722-.1205-.5161-.2967-.7161-.5171-.1999-.2204-.3516-.4802-.4452-.7627s-.127-.5815-.0982-.8778zm3.333 0c0-.976-.4385-1.5468-1.208-1.5468-.7725 0-1.207.5708-1.207 1.5469 0 .9838.4346 1.5502 1.207 1.5502.7695 0 1.208-.5703 1.208-1.5503z"/><path d="m51.6235 14.6978h-.9219l-.9307-3.3165h-.0703l-.9267 3.3165h-.9131l-1.2412-4.503h.9013l.8067 3.436h.0664l.9258-3.436h.8525l.9258 3.436h.0703l.8027-3.436h.8887z"/><path d="m53.9038 10.1948h.8554v.7154h.0664c.1127-.257.3027-.4723.5436-.6161.2408-.1438.5206-.2089.8002-.1862.2191-.0165.4391.0166.6437.0967s.3885.2052.5382.366c.1497.1609.2613.3533.3265.5631.0652.2099.0823.4317.0502.649v2.915h-.8887v-2.6918c0-.7237-.3145-1.0835-.9717-1.0835-.1487-.007-.2972.0184-.4353.0742s-.2624.1409-.3645.2492c-.1022.1084-.1796.2376-.2272.3787-.0475.1412-.0639.2909-.0482.439v2.6343h-.8887z"/><path d="m59.144 8.43701h.8887v6.26079h-.8887z"/><path d="m61.268 12.4443c-.0283-.2959.0056-.5945.0994-.8766.0939-.282.2457-.5414.4456-.7614.2-.22.4437-.3957.7156-.516s.5659-.1824.8632-.1824.5913.0621.8631.1824c.2719.1203.5156.296.7156.516s.3517.4794.4456.7614c.0939.2821.1277.5807.0994.8766.0289.2963-.0046.5953-.0982.8778-.0937.2825-.2454.5423-.4454.7627s-.4439.3966-.716.5171c-.2722.1205-.5665.1828-.8641.1828-.2977 0-.592-.0623-.8641-.1828-.2722-.1205-.5161-.2967-.7161-.5171s-.3517-.4802-.4453-.7627-.1271-.5815-.0983-.8778zm3.333 0c0-.976-.4385-1.5468-1.208-1.5468-.7725 0-1.207.5708-1.207 1.5469 0 .9838.4346 1.5502 1.207 1.5502.7695 0 1.208-.5703 1.208-1.5503z"/><path d="m66.4511 13.4243c0-.8105.6035-1.2778 1.6748-1.3442l1.2197-.0703v-.3887c0-.4756-.3144-.7441-.9218-.7441-.4961 0-.8399.1821-.9385.5005h-.8604c.0909-.7735.8184-1.2696 1.8399-1.2696 1.1289 0 1.7656.562 1.7656 1.5132v3.0767h-.8555v-.6328h-.0703c-.1427.227-.3431.412-.5807.5362s-.504.1832-.7718.1708c-.189.0196-.3801-.0005-.5609-.0592-.1807-.0587-.3472-.1547-.4886-.2816-.1414-.127-.2547-.2822-.3324-.4556-.0778-.1734-.1183-.3612-.1191-.5513zm2.8945-.3847v-.3765l-1.0996.0703c-.6201.0415-.9013.2525-.9013.6494 0 .4053.3515.6411.835.6411.1416.0144.2847.0001.4207-.042s.2621-.1111.3709-.203c.1088-.0918.198-.2046.2623-.3316s.1024-.2657.112-.4077z"/><path d="m71.3984 12.4444c0-1.4229.7314-2.3243 1.8691-2.3243.2814-.0129.5607.0545.8053.1944.2445.1399.4441.3465.5756.5956h.0664v-2.47309h.8887v6.26079h-.8516v-.7115h-.0703c-.1416.2475-.3482.4515-.5975.59-.2492.1385-.5316.2062-.8166.1957-1.1455 0-1.8691-.9014-1.8691-2.3276zm.918 0c0 .955.4502 1.5297 1.2031 1.5297.749 0 1.2119-.583 1.2119-1.5258 0-.9385-.4678-1.5298-1.2119-1.5298-.7481 0-1.2031.5786-1.2031 1.5259z"/><path d="m79.2802 12.4443c-.0283-.2959.0056-.5944.0994-.8765s.2456-.5414.4455-.7614c.2-.22.4437-.3957.7155-.516.2719-.1203.5659-.1824.8632-.1824.2972 0 .5912.0621.8631.1824.2718.1203.5155.296.7155.516.1999.22.3517.4793.4455.7614s.1277.5806.0994.8765c.0288.2963-.0046.5953-.0982.8778s-.2453.5423-.4453.7627-.4438.3966-.716.5171c-.2721.1206-.5664.1828-.864.1828-.2977 0-.592-.0622-.8641-.1828-.2722-.1205-.516-.2967-.716-.5171s-.3517-.4802-.4453-.7627-.127-.5815-.0982-.8778zm3.333 0c0-.976-.4385-1.5468-1.208-1.5468-.7724 0-1.207.5708-1.207 1.5469 0 .9838.4346 1.5502 1.207 1.5502.7695 0 1.208-.5703 1.208-1.5503z"/><path d="m84.7197 10.1948h.8554v.7154h.0664c.1127-.257.3027-.4723.5436-.6161.2408-.1438.5206-.2089.8002-.1862.2191-.0165.4391.0166.6437.0967s.3885.2052.5382.366c.1497.1609.2613.3533.3265.5631.0652.2099.0823.4317.0502.649v2.915h-.8887v-2.6918c0-.7237-.3144-1.0835-.9717-1.0835-.1487-.007-.2972.0184-.4353.0742-.138.0558-.2624.1409-.3645.2492-.1021.1084-.1796.2376-.2271.3787-.0476.1412-.064.2909-.0483.439v2.6343h-.8886z"/><path d="m93.5654 9.07373v1.14157h.9756v.7486h-.9756v2.3154c0 .4717.1943.6782.6367.6782.1132-.0003.2264-.0072.3389-.0205v.7402c-.1596.0286-.3213.0438-.4834.0454-.9883 0-1.3819-.3476-1.3819-1.2158v-2.543h-.7148v-.7485h.7148v-1.14157z"/><path d="m95.7548 8.43701h.8809v2.48149h.0703c.1181-.2594.3133-.476.559-.6203s.53-.2094.814-.1864c.2179-.0118.4358.0246.6381.1066s.384.2077.5321.368c.1481.1604.259.3514.3248.5596.0658.2081.0848.4282.0558.6445v2.9073h-.8896v-2.688c0-.7193-.335-1.0835-.9629-1.0835-.1527-.0126-.3064.0084-.4501.0615-.1438.053-.2743.1369-.3822.2456-.108.1087-.191.2398-.243.3839-.0521.1441-.072.2979-.0585.4506v2.6298h-.8886z"/><path d="m104.811 13.4819c-.12.4116-.382.7676-.739 1.0057-.356.2382-.785.3433-1.212.2971-.296.0078-.591-.049-.864-.1665-.272-.1176-.516-.293-.714-.5141-.198-.2212-.345-.4827-.432-.7665-.086-.2839-.11-.5832-.07-.8771-.039-.2949-.015-.5949.072-.8795.086-.2847.233-.5475.43-.7705.196-.2231.439-.4013.711-.5225.271-.1212.566-.1826.863-.1801 1.253 0 2.009.856 2.009 2.27v.3101h-3.18v.0498c-.013.1653.007.3316.061.4883.055.1568.141.3005.254.422.113.1214.25.2179.402.2833.153.0654.317.0983.483.0964.212.0255.428-.0127.618-.11.191-.0972.349-.2489.453-.4359zm-3.126-1.4511h2.275c.011-.1512-.009-.303-.06-.4457s-.132-.2732-.236-.383c-.104-.1099-.231-.1967-.371-.2549-.139-.0581-.29-.0864-.442-.0829-.153-.002-.306.0269-.448.0848-.142.058-.272.1438-.38.2526-.109.1087-.195.238-.253.3804s-.087.295-.085.4487z"/></g></g></svg>