<svg fill="none" height="100" viewBox="0 0 100 100" width="100" xmlns="http://www.w3.org/2000/svg"><path d="m91.2822 14.1445-83.04765 33.5309c-.38249.1546-.70688.4248-.9277.7726s-.32702.7558-.30369 1.1668.17501.8045.43377 1.1252c.25877.3207.61165.5526 1.00919.6632l25.18518 6.9803 16.0698 25.6946c.2113.3342.5182.5975.881.756.3629.1584.765.2048 1.1545.133.3896-.0717.7486-.2583 1.0307-.5356.2822-.2773.4745-.6326.5523-1.0201l3.5137-17.9943 23.3344 8.3709c.5398.1894 1.1409.1421 1.6431-.142.2476-.1394.462-.3305.6286-.5603.1665-.2298.2813-.4929.3364-.7711l11.1857-55.9571c.0701-.3489.0441-.7102-.0751-1.0455-.1192-.3354-.3272-.6323-.6019-.8592-.2747-.227-.606-.3755-.9585-.4297-.3525-.0543-.7132-.0124-1.0438.1214zm-40.8851 63.5943-12.7024-20.3099 32.0327-17.2112-15.9788 21.3888-.0079.0157c-.0415.0572-.0553.1283-.0909.1894-.108.172-.1887.3596-.2393.5562-.0039.0138-.0158.0257-.0198.0395zm28.948-8.44-20.8291-7.4675 19.7139-26.3888c.2683-.3599.4056-.8002.3893-1.2483-.0163-.4482-.1852-.8774-.4788-1.217-.2937-.3395-.6946-.5691-1.1366-.6509s-.8988-.0109-1.295.201l-41.0453 22.0456-19.5558-5.4202 74.2605-29.9806-10.0211 50.1248z" fill="#000"/></svg>