<svg fill="none" height="100" viewBox="0 0 100 100" width="100" xmlns="http://www.w3.org/2000/svg"><g clip-rule="evenodd" fill="#000" fill-rule="evenodd"><path d="m4.5 12.7181c0-3.34115 2.61365-6.2181 6.0751-6.2181h46.9012l32.5909.14297h.0035c3.4002.00184 6.0716 2.67434 6.0716 6.07513v58.6182c0 3.402-2.6732 6.0751-6.0751 6.0751h-79.4921c-3.40193 0-6.0751-2.6731-6.0751-6.0751zm88.6423 47.8251h-81.4234c-.8285 0-1.5.6716-1.5 1.5s.6715 1.5 1.5 1.5h81.4234v7.7931c0 1.7451-1.33 3.0751-3.0751 3.0751h-79.4921c-1.74507 0-3.0751-1.33-3.0751-3.0751v-58.6182c0-1.8059 1.38955-3.2181 3.0751-3.2181h46.8946l32.5909.14296.0066.00001c1.7451 0 3.0751 1.33003 3.0751 3.07513z"/><path d="m52.7517 28.2292c-2.409 0-4.3619 1.9529-4.3619 4.3619 0 2.4089 1.9529 4.3618 4.3619 4.3618 2.4089 0 4.3618-1.9529 4.3618-4.3618 0-2.409-1.9529-4.3619-4.3618-4.3619zm-7.3619 4.3619c0-4.0659 3.296-7.3619 7.3619-7.3619 4.0658 0 7.3618 3.2961 7.3618 7.3619s-3.296 7.3618-7.3618 7.3618c-4.0659 0-7.3619-3.296-7.3619-7.3618z"/><path d="m53.2812 37.0495c.7751.2925 1.1663 1.1579.8739 1.933l-2.8595 7.5775c-.2924.775-1.1579 1.1662-1.933.8738-.775-.2925-1.1663-1.1579-.8738-1.933l2.8595-7.5775c.2924-.7751 1.1579-1.1663 1.9329-.8738z"/><path d="m48.4625 47.2445c-1.2245 0-2.2172.9927-2.2172 2.2173 0 1.2245.9927 2.2172 2.2172 2.2172 1.2246 0 2.2173-.9927 2.2173-2.2172 0-1.2246-.9927-2.2173-2.2173-2.2173zm-5.2172 2.2173c0-2.8814 2.3358-5.2173 5.2172-5.2173s5.2173 2.3359 5.2173 5.2173-2.3359 5.2172-5.2173 5.2172-5.2172-2.3358-5.2172-5.2172z"/><path d="m38.0983 32.5911c0-.8285.6716-1.5 1.5-1.5h7.2915c.8285 0 1.5.6715 1.5 1.5 0 .8284-.6715 1.5-1.5 1.5h-7.2915c-.8284 0-1.5-.6716-1.5-1.5z"/><path d="m35.881 30.3738c-1.2245 0-2.2172.9927-2.2172 2.2172 0 1.2246.9927 2.2173 2.2172 2.2173 1.2246 0 2.2173-.9927 2.2173-2.2172 0-1.2246-.9927-2.2173-2.2173-2.2173zm-5.2172 2.2172c0-2.8814 2.3358-5.2172 5.2172-5.2172s5.2173 2.3358 5.2173 5.2172-2.3359 5.2173-5.2173 5.2173-5.2172-2.3359-5.2172-5.2173z"/><path d="m63.0904 22.2225c.594.5775.6074 1.5271.0299 2.1211l-5.004 5.147c-.5775.5939-1.5271.6073-2.1211.0298-.594-.5774-.6074-1.5271-.0299-2.1211l5.004-5.1469c.5775-.594 1.5271-.6074 2.1211-.0299z"/><path d="m63.1744 19.005c-.8659.8659-.8659 2.2698 0 3.1356.8659.8659 2.2698.8659 3.1357 0s.8659-2.2698 0-3.1357-2.2698-.8658-3.1357.0001zm-2.1212 5.257c-2.0375-2.0374-2.0376-5.3408-.0002-7.3783 2.0375-2.0375 5.3408-2.0376 7.3783-.0001 2.0375 2.0374 2.0376 5.3408.0002 7.3783-2.0375 2.0375-5.3408 2.0375-7.3783.0001z"/><path d="m55.9952 35.6618c.594-.5775 1.5436-.5641 2.1211.0299l5.004 5.147c.5775.5939.5641 1.5436-.0299 2.1211s-1.5436.5641-2.1211-.0299l-5.004-5.147c-.5775-.594-.5641-1.5436.0299-2.1211z"/><path d="m63.2061 43.0549c-.8659.8659-.8659 2.2698 0 3.1357s2.2698.8658 3.1357-.0001.8658-2.2698-.0001-3.1357c-.8659-.8658-2.2698-.8658-3.1356.0001zm-2.1213 5.257c-2.0375-2.0374-2.0375-5.3408-.0001-7.3783s5.3408-2.0375 7.3783-.0001 2.0376 5.3408.0001 7.3783c-2.0374 2.0375-5.3408 2.0376-7.3783.0001z"/><path d="m42.3979 22.2373c.5857-.5858 1.5355-.5858 2.1213 0l5.1469 5.147c.5858.5858.5858 1.5355 0 2.1213-.5857.5858-1.5355.5858-2.1213 0l-5.1469-5.147c-.5858-.5858-.5858-1.5355 0-2.1213z"/><path d="m39.3261 18.978c-.8659.8659-.8659 2.2698 0 3.1357.8659.8658 2.2698.8658 3.1357-.0001s.8659-2.2698-.0001-3.1357c-.8659-.8658-2.2697-.8658-3.1356.0001zm-2.1213 5.257c-2.0375-2.0374-2.0375-5.3408-.0001-7.3783s5.3408-2.0375 7.3783-.0001 2.0376 5.3408.0002 7.3783c-2.0375 2.0375-5.3409 2.0376-7.3784.0001z"/><path d="m45.1039 69.0488c0-.8284.6716-1.5 1.5-1.5h7.4345c.8284 0 1.5.6716 1.5 1.5 0 .8285-.6716 1.5-1.5 1.5h-7.4345c-.8284 0-1.5-.6715-1.5-1.5zm-5.4605 6.2857c.2329-.5589.779-.923 1.3846-.923h18.4433c.6056 0 1.1517.3641 1.3846.923l2.8595 6.8627c.014.0337.0268.0679.0384.1025.0148.0444.0236.061.055.1199.0249.0468.064.1203.1317.2555.0417.0835.0924.1893.141.3151.0892.1133.1628.2406.2172.3791.0091.0102.0221.0241.0399.0419.0457.0457.0997.0946.1857.1713l.0148.0132c.0451.0402.1028.0916.1638.1485l1.1763.7842c1.2704.8469 2.0977 2.3135 2.0977 3.9645v1.2868c0 1.9722-1.5294 3.5016-3.5016 3.5016h-28.1654c-1.9721 0-3.5016-1.5294-3.5016-3.5016v-1.2868c0-1.5042.5745-3.0443 1.9547-3.9645l1.1621-.7747c.0822-.083.1565-.1595.2258-.2354.0661-.2393.1917-.4632.3723-.6481.0061-.0095.0227-.0368.0475-.0913.051-.1122.0983-.2496.1748-.4792.0116-.0346.0244-.0688.0385-.1025zm-1.1671 10.0834c-.1877.2154-.3645.3921-.5163.5439l-.0175.0175c-.0699.0699-.1464.1326-.2286.1874l-1.2868.8579c-.3354.2235-.6188.685-.6188 1.4683v1.2868c0 .1867.0653.3018.1326.369.0673.0673.1823.1326.369.1326h28.1654c.1868 0 .3018-.0653.3691-.1326.0672-.0672.1325-.1823.1325-.369v-1.2868c0-.6364-.3164-1.1715-.7618-1.4683l-1.2867-.8579c-.0822-.0548-.1588-.1175-.2286-.1874-.0351-.0351-.0807-.0761-.1723-.1579l-.0043-.0038c-.0792-.0706-.1929-.172-.3059-.2851-.0346-.0345-.0718-.0727-.1107-.1146zm1.4657-3h20.6153l-2.086-5.0064h-16.4433z"/></g></svg>