<svg viewBox="0 0 64 64" xmlns="http://www.w3.org/2000/svg"><rect fill="#94a4ad" height="46" rx="4" width="60" x="2" y="2"/><path d="m6 6h52v34h-52z" fill="#6dc2f2"/><path d="m10 10h36v24h-36z" fill="#f0f2f3"/><path d="m16.2896 22.2924 3.9995-3.9995 1.414 1.414-3.9995 3.9995zm5.9989-2.5849 1.414-1.414 7.999 7.999-1.414 1.414z" fill="#d77976"/><path d="m22 56h20a3 3 0 0 1 3 3v3h-26v-3a3 3 0 0 1 3-3z" fill="#94a4ad"/><path d="m25 48h14v8h-14z" fill="#b3bec4"/><path d="m57 43h2v2h-2zm-4 0h2v2h-2zm-5-20.058a4.057 4.057 0 0 0 2.266 3.6 5 5 0 0 1 2.734 4.458 5 5 0 0 1 -5 5h-4a5 5 0 0 1 -5-5 5 5 0 0 1 2.734-4.458 4.057 4.057 0 0 0 2.266-3.6v-6.942h4zm1-10.942h2v2h-2zm4-3h2v2h-2zm-1 7h2v2h-2z" fill="#fff"/><path d="m39 31a5 5 0 0 0 5 5h4a5 5 0 0 0 4.58-7h-13.16a4.978 4.978 0 0 0 -.42 2z" fill="#4596ec"/><g fill="#e25241"><circle cx="16" cy="24" r="2"/><circle cx="22" cy="18" r="2"/><circle cx="32" cy="28" r="2"/></g><path d="m26 13h15v2h-15zm2 4h13v2h-13zm2 4h11v2h-11z" fill="#b3bec4"/></svg>