<svg viewBox="-50 0 512 512" xmlns="http://www.w3.org/2000/svg"><path d="m121.121 323.4922c18.086 13.1953 28.4688 34.5 28.4688 56.8867v18.1406h113.6524v-13.7382c0-24.7813 11.4531-48.2188 31.1367-63.2852 34.5781-26.4688 56.8828-68.168 56.8828-115.0781 0-79.586-64.1797-144.1758-143.6055-144.8399-80.1289-.6719-146.0859 64.707-146.0859 144.8399 0 48.1054 23.4531 90.7304 59.5508 117.0742zm0 0" fill="#ffc964"/><path d="m141.414 323.4883c-36.0976-26.3399-59.5507-68.9649-59.5507-117.0742 0-76.297 59.793-139.2149 134.6836-144.4844-2.9453-.2031-5.9063-.332-8.8946-.3555-80.1289-.6719-146.082 64.711-146.082 144.8399 0 48.1093 23.4531 90.7343 59.5508 117.0742 18.086 13.1992 28.4687 34.5039 28.4687 56.8906v18.1367h20.293v-18.1366c0-22.3867-10.3828-43.6914-28.4687-56.8906zm0 0" fill="#f3a334"/><path d="m405.2227 214.0234h-23.9454c-4.203 0-7.6093-3.4062-7.6093-7.6093 0-4.2032 3.4062-7.6094 7.6093-7.6094h23.9454c4.1992 0 7.6093 3.4062 7.6093 7.6094 0 4.203-3.4101 7.6093-7.6093 7.6093zm-373.668 0h-23.9453c-4.2031 0-7.6094-3.4062-7.6094-7.6093 0-4.2032 3.4063-7.6094 7.6094-7.6094h23.9453c4.1992 0 7.6094 3.4062 7.6094 7.6094 0 4.203-3.4102 7.6093-7.6094 7.6093zm319.707-91.2344c-2.1015-3.6406-.8554-8.293 2.7852-10.3945l20.7344-11.9726c3.6406-2.1016 8.293-.8555 10.3945 2.7851 2.1015 3.6407.8555 8.293-2.7852 10.3946l-20.7343 11.9726c-3.6368 2.0977-8.293.8594-10.3946-2.7851zm-323.6054 186.832c-2.1055-3.6405-.8555-8.2929 2.7851-10.3944l20.7344-11.9727c3.6406-2.0976 8.293-.8516 10.3945 2.789 2.1016 3.6368.8555 8.293-2.7851 10.3946l-20.7344 11.9688c-3.6406 2.1015-8.293.8554-10.3946-2.7852zm262.3867-248.0507c-3.6407-2.1016-4.8907-6.7578-2.789-10.3945l11.9726-20.7344c2.1015-3.6406 6.7539-4.8906 10.3945-2.7852 3.6406 2.1016 4.8867 6.754 2.7852 10.3946l-11.9688 20.7344c-2.1016 3.6367-6.754 4.8867-10.3945 2.7851zm-83.625-22.4063c-4.2032 0-7.6133-3.41-7.6133-7.6132v-23.9414c0-4.2031 3.4101-7.6094 7.6133-7.6094 4.1992 0 7.6093 3.4063 7.6093 7.6094v23.9414c-.0039 4.2031-3.4101 7.6133-7.6093 7.6133zm-94.0235 19.6212-11.9725-20.7344c-2.1016-3.6406-.8555-8.2969 2.7851-10.3946 3.6407-2.1015 8.297-.8554 10.3985 2.7852l11.9687 20.7344c2.1016 3.6367.8555 8.293-2.7851 10.3945-3.6407 2.1016-8.293.8516-10.3946-2.7851zm-61.2187 66.789-20.7344-11.9726c-3.6406-2.1016-4.8906-6.754-2.7852-10.3946 2.1016-3.6406 6.754-4.8867 10.3946-2.7851l20.7344 11.9726c3.6406 2.1016 4.8867 6.754 2.7851 10.3946s-6.7539 4.8867-10.3945 2.7851zm323.6055 186.8321-20.7344-11.9688c-3.6406-2.1016-4.8906-6.7578-2.789-10.3945 2.1015-3.6446 6.7577-4.8868 10.3983-2.789l20.7344 11.9726c3.6406 2.1015 4.8867 6.7578 2.7852 10.3945-2.1016 3.6406-6.754 4.8867-10.3946 2.7851zm0 0" fill="#ffc964"/><path d="m177.496 477.9844c4.1603 19.8008 15.5314 34.0156 28.922 34.0156 13.3867 0 24.7578-14.2148 28.918-34.0156zm0 0" fill="#4b98d4"/><path d="m197.6602 477.9844h-20.1642c4.1602 19.8008 15.5313 34.0156 28.918 34.0156 3.5351 0 6.9257-1 10.0859-2.8203-8.8047-5.082-15.7773-16.6211-18.8398-31.1953zm0 0" fill="#2472b2"/><path d="m266.3008 393.4453h-119.7696c-4.828 0-8.7421 3.914-8.7421 8.7422v37.7031c0 22.914 18.5742 41.4922 41.4921 41.4922h54.2696c22.918 0 41.4922-18.5781 41.4922-41.4922v-37.7031c0-4.8281-3.914-8.7422-8.7422-8.7422zm0 0" fill="#e4e3e1"/><path d="m158.082 439.8906v-37.7031c0-4.8281 3.914-8.7422 8.7422-8.7422h-20.293c-4.828 0-8.7421 3.914-8.7421 8.7422v37.7031c0 22.914 18.5742 41.4922 41.4922 41.4922h20.293c-22.918 0-41.4923-18.5781-41.4923-41.4922zm0 0" fill="#d1d0cf"/><path d="m137.789 437.414v2.4766c0 22.914 18.5743 41.4922 41.4923 41.4922h54.2695c22.918 0 41.4922-18.5781 41.4922-41.4922v-2.4765zm0 0" fill="#d1d0cf"/><path d="m158.082 439.8906v-2.4765h-20.293v2.4765c0 22.914 18.5743 41.4922 41.4923 41.4922h20.293c-22.918 0-41.4923-18.5781-41.4923-41.4922zm0 0" fill="#c1c1c1"/><path d="m146.0352 208.6133c-1.2149-1.2149-1.2149-3.1836 0-4.3985l21.414-21.4101c4.879-4.879 4.8828-12.7852 0-17.664-4.871-4.8712-12.793-4.8712-17.664 0l-32.4415 32.4413c-4.8828 4.879-4.8828 12.7852 0 17.664l32.4415 32.4415c4.8867 4.8906 12.789 4.875 17.664 0 4.879-4.879 4.8828-12.7813 0-17.6602zm148.5625-11.0313-32.3711-32.371c-4.8711-4.8673-12.793-4.8712-17.6641 0-4.871 4.871-4.871 12.7968 0 17.664l20.5117 20.5117c1.6719 1.6719 1.6719 4.3828 0 6.0547l-20.5117 20.5117c-4.8828 4.879-4.8828 12.7852 0 17.664 4.879 4.879 12.7852 4.8829 17.664 0l32.3712-32.371c4.8789-4.879 4.8789-12.7813 0-17.664zm-65.2696-43.7422c-6.3125-2.75-13.6875.1485-16.4414 6.461l-35.8398 82.25c-2.754 6.3242.1328 13.6797 6.461 16.4375 6.3358 2.7617 13.6913-.1485 16.4413-6.461l35.8399-82.246c2.75-6.3125-.1485-13.6875-6.461-16.4415zm0 0" fill="#525468"/><path d="m137.6367 215.246c-4.8828-4.8788-4.8828-12.785 0-17.664l31.0196-31.0156c-.3672-.496-.7618-.9766-1.207-1.4258-4.8712-4.871-12.793-4.871-17.6641 0l-32.4415 32.4414c-4.8828 4.879-4.8828 12.7852 0 17.664l32.4415 32.4415c4.8867 4.8906 12.789 4.875 17.664 0 .4453-.4453.8399-.9258 1.207-1.4219zm127.2188 14.7071 20.5117-20.5117c1.6719-1.6719 1.6719-4.3828 0-6.0547l-20.5117-20.5117c-4.422-4.4219-4.8125-11.3555-1.207-16.2383l-1.422-1.4258c-4.871-4.8672-12.793-4.871-17.664 0-4.871 4.8711-4.871 12.797 0 17.6641l20.5117 20.5117c1.6719 1.6719 1.6719 4.3828 0 6.0547l-20.5117 20.5117c-4.8828 4.879-4.8828 12.7852 0 17.664 4.879 4.879 12.7852 4.8829 17.664 0l1.422-1.4257c-3.6212-4.8867-3.2266-11.8047 1.207-16.2383zm-67.5117 12.5977 35.8359-82.25a12.569 12.569 0 0 1 1.2969-2.2735c-1.2696-1.7773-3.0078-3.2539-5.1485-4.1875-6.3125-2.75-13.6875.1485-16.4414 6.461l-35.8398 82.25c-2.754 6.3242.1328 13.6797 6.461 16.4375 5.5116 2.4023 11.789.5117 15.1444-4.1758-2.4765-3.457-3.1328-8.082-1.3085-12.2617zm0 0" fill="#3e4151"/></svg>