<svg fill="none" height="100" viewBox="0 0 100 100" width="100" xmlns="http://www.w3.org/2000/svg"><g fill="#278cc7"><path d="m63.8396 33.5399c-.1757-.5407-.616-.9539-1.1665-1.0952l-6.9359-1.779-3.8351-6.0466c-.3045-.4801-.8335-.771-1.402-.771-.5684 0-1.0973.2909-1.4018.771l-3.8354 6.0466-6.9356 1.779c-.5507.1413-.9908.5545-1.1665 1.0952-.1756.5407-.0624 1.1336.3 1.5715l4.5656 5.5162-.4514 7.1457c-.0359.5675.221 1.1137.681 1.4479.46.3341 1.0588.4097 1.5874.2003l6.6569-2.6374 6.6568 2.6374c.1976.0784.4049.1167.6115.1167.3454 0 .6881-.1077.976-.317.46-.3342.7168-.8804.681-1.4479l-.4514-7.1459 4.5655-5.516c.3623-.4379.4755-1.0308.2999-1.5715zm-7.8429 5.477c-.2694.3254-.4046.7414-.3779 1.1633l.3279 5.1902-4.835-1.9156c-.1964-.0779-.4041-.1167-.6116-.1167s-.4152.0388-.6116.1167l-4.8348 1.9156.3279-5.1901c.0267-.4218-.1085-.8377-.3779-1.1632l-3.3161-4.0065 5.0373-1.2921c.4093-.105.7632-.362.9895-.7188l2.7857-4.3917 2.7854 4.3917c.2263.3568.5802.6138.9895.7188l5.0377 1.2921z"/><path d="m50.4994 54.2646c-.9169 0-1.6602.7435-1.6602 1.6602v35.4147c0 .9168.7433 1.6602 1.6602 1.6602s1.6601-.7433 1.6601-1.6602v-35.4147c0-.9169-.7432-1.6602-1.6601-1.6602z"/><path d="m76.5055 48.1515c-.6035-.6906-1.6524-.7614-2.3425-.1577-2.8704 2.5081-5.2122 5.9385-6.9603 10.1954-2.3563 5.738-3.5511 12.8519-3.5511 21.144 0 .9167.7433 1.6601 1.6602 1.6601s1.6601-.7434 1.6601-1.6601c0-17.9641 5.8743-25.7794 9.376-28.8393.6901-.6033.7607-1.652.1576-2.3424z"/><path d="m92.7777 38.6584c-.2842-.4924-.8007-.805-1.3686-.8286l-3.434-.1431-2.4039-2.4562c-.3976-.4062-.9757-.5813-1.5317-.4625-.5561.1182-1.013.5127-1.2109 1.0456l-1.1973 3.2215-3.0786 1.5273c-.5091.2525-.8538.7483-.9132 1.3137-.0594.5653.1746 1.1218.6202 1.4749l2.6939 2.1339.5012 3.4002c.083.5624.4478 1.0434.9672 1.2746.2159.0962.4459.1435.675.1435.3221 0 .6427-.0937.9193-.2776l2.8621-1.9027 3.3885.5739c.0979.0168.1979.0254.2933.0234.9111-.0069 1.6474-.7475 1.6474-1.6601 0-.1936-.033-.3792-.094-.552l-.8956-3.2048 1.5931-3.0452c.2633-.5037.2508-1.1073-.0334-1.5997zm-4.9346 4.9049.3976 1.4226-1.4565-.2465c-.4165-.0709-.8445.0204-1.1963.2541l-1.2301.8178-.2154-1.4612c-.0615-.4182-.2804-.7969-.6116-1.0594l-1.1579-.9172 1.3231-.6564c.3785-.1878.6712-.5129.8183-.909l.5147-1.3847 1.0332 1.0557c.2955.3018.6951.4799 1.1173.4974l1.4761.0616-.6847 1.3087c-.1959.3747-.2417.8096-.1278 1.2165z"/><path d="m26.8371 47.9933c-.6905-.6037-1.7394-.5329-2.3425.1577-.6033.6904-.5326 1.7393.1577 2.3424 3.5016 3.0599 9.376 10.8752 9.376 28.8393 0 .9167.7433 1.6601 1.6602 1.6601s1.6601-.7434 1.6601-1.6601c0-8.2921-1.1948-15.406-3.551-21.144-1.7483-4.2569-4.0901-7.6871-6.9605-10.1954z"/><path d="m23.3608 41.8762c-.0595-.5655-.4041-1.0612-.9133-1.3137l-3.0785-1.5273-1.1973-3.2215c-.1981-.533-.655-.9274-1.2111-1.0456-.5565-.119-1.1339.0563-1.5317.4625l-2.4039 2.4562-3.43397.1431c-.56794.0237-1.08441.3362-1.36863.8286-.28421.4924-.29683 1.096-.0332 1.5997l1.59308 3.0452-.92504 3.3098c-.15306.5476-.01527 1.1352.36507 1.5577.38051.4226.95089.6216 1.51109.526l3.3885-.5739 2.8621 1.9027c.2767.1837.597.2775.9192.2775.2291 0 .4592-.0473.675-.1434.5193-.2313.8842-.7122.9672-1.2747l.5012-3.4001 2.6939-2.134c.4458-.3531.6797-.9095.6203-1.4748zm-5.8914 1.4146c-.3312.2625-.55.6411-.6116 1.0593l-.2153 1.4613-1.2302-.8178c-.2741-.1821-.5941-.2776-.919-.2776-.0923 0-.1851.0077-.2773.0234l-1.4564.2466.3976-1.4226c.1137-.4069.0681-.8419-.1278-1.2164l-.6847-1.3087 1.476-.0616c.4222-.0174.8218-.1956 1.1173-.4974l1.0333-1.0557.5146 1.3848c.1471.3961.4398.7211.8183.9089l1.3232.6564z"/><path d="m30.9676 18.9619c2.5103 1.412 5.0678 5.482 5.5849 8.8876.1248.8221.8326 1.4112 1.6392 1.4112.0829 0 .1669-.0062.2514-.019.9064-.1376 1.5296-.9841 1.392-1.8905-.6714-4.4212-3.8514-9.3772-7.2397-11.2832-.7992-.4496-1.8114-.1659-2.261.633-.4492.7993-.1658 1.8114.6332 2.2609z"/><path d="m23.5454 17.9609c2.7462 0 4.9806-2.2342 4.9806-4.9805 0-2.7462-2.2344-4.9804-4.9806-4.9804s-4.9805 2.2342-4.9805 4.9804c0 2.7463 2.2343 4.9805 4.9805 4.9805zm0-6.6406c.9156 0 1.6603.7447 1.6603 1.6601s-.7447 1.6602-1.6603 1.6602c-.9154 0-1.6602-.7448-1.6602-1.6602s.7448-1.6601 1.6602-1.6601z"/><path d="m62.5567 29.2417c.0845.0128.1686.0189.2514.0189.8068 0 1.5145-.589 1.6392-1.4111.5172-3.4057 3.0748-7.4757 5.5849-8.8876.799-.4496 1.0824-1.4618.633-2.2608s-1.4616-1.0828-2.2609-.633c-3.3884 1.9058-6.5684 6.862-7.2398 11.2832-.1376.9064.4858 1.7527 1.3922 1.8904z"/><path d="m77.4547 17.9609c2.7462 0 4.9804-2.2342 4.9804-4.9805 0-2.7462-2.2342-4.9804-4.9804-4.9804s-4.9805 2.2342-4.9805 4.9804c0 2.7463 2.2343 4.9805 4.9805 4.9805zm0-6.6406c.9154 0 1.6601.7447 1.6601 1.6601s-.7447 1.6602-1.6601 1.6602-1.6602-.7448-1.6602-1.6602.7448-1.6601 1.6602-1.6601z"/><path d="m21.9731 65.4082c-.9144 0-1.6601.7457-1.6601 1.6601 0 .9145.7457 1.6602 1.6601 1.6602s1.6602-.7457 1.6602-1.6602c0-.9144-.7458-1.6601-1.6602-1.6601z"/><path d="m27.2856 32.4541c0 .9146.7458 1.6601 1.6602 1.6601s1.6603-.7455 1.6603-1.6601c0-.9144-.7459-1.6602-1.6603-1.6602s-1.6602.7458-1.6602 1.6602z"/><path d="m50.3617 18.1772c.9144 0 1.6601-.7455 1.6601-1.6601 0-.9144-.7457-1.6602-1.6601-1.6602s-1.6602.7458-1.6602 1.6602c0 .9146.7458 1.6601 1.6602 1.6601z"/><path d="m73.6036 31.956c0 .9145.7458 1.6602 1.6602 1.6602s1.6603-.7457 1.6603-1.6602c0-.9144-.7459-1.6601-1.6603-1.6601s-1.6602.7457-1.6602 1.6601z"/><path d="m77.256 65.4082c-.9146 0-1.6602.7457-1.6602 1.6601 0 .9145.7456 1.6602 1.6602 1.6602.9144 0 1.6601-.7457 1.6601-1.6602 0-.9144-.7457-1.6601-1.6601-1.6601z"/><path d="m35.6879 82.4819c-.9145 0-1.6602.7459-1.6602 1.6602 0 .9146.7457 1.6603 1.6602 1.6603.9144 0 1.6601-.7457 1.6601-1.6603 0-.9143-.7457-1.6602-1.6601-1.6602z"/><path d="m65.3118 82.4819c-.9146 0-1.6602.7459-1.6602 1.6602 0 .9146.7456 1.6603 1.6602 1.6603.9144 0 1.6601-.7457 1.6601-1.6603 0-.9143-.7457-1.6602-1.6601-1.6602z"/><path d="m41.2882 55.7588c-.9144 0-1.6601.7457-1.6601 1.6601s.7457 1.6602 1.6601 1.6602 1.6601-.7458 1.6601-1.6602-.7457-1.6601-1.6601-1.6601z"/><path d="m59.8403 55.0117c-.9144 0-1.6601.7458-1.6601 1.6602s.7457 1.6601 1.6601 1.6601 1.6602-.7457 1.6602-1.6601-.7458-1.6602-1.6602-1.6602z"/></g></svg>