<svg fill="none" height="100" viewBox="0 0 100 100" width="100" xmlns="http://www.w3.org/2000/svg"><g fill="#000"><path d="m94.4614 15.057-7.5815-10.53122c-.1462-.19738-.3378-.3567-.5586-.46453-.2207-.10782-.4642-.16098-.7097-.155-.2455-.00608-.4888.04688-.7094.15442-.2207.10754-.4124.26651-.5588.46355l-7.5822 10.51838c-.0292.0376-.0564.0768-.0817.1172-1.6797 2.8806-1.6601 6.3724.0483 9.3474.9285 1.6143 2.2761 2.9475 3.9002 3.8588l-2.5946 17.6758c-.0138.095-.019.1911-.0154.2871l1.5559 39.9992c.0602 1.5608.7225 3.0375 1.8481 4.1204 1.1255 1.083 2.6267 1.6879 4.1886 1.6879s3.0631-.6049 4.1886-1.6879c1.1255-1.0829 1.7879-2.5596 1.8481-4.1204l1.5559-40c.0039-.1008-.002-.2018-.0176-.3015l-2.7414-17.5782c1.6948-.9151 3.1004-2.2853 4.0584-3.9562 1.7011-2.9688 1.7154-6.451.0375-9.3143-.0244-.0412-.0506-.0818-.0787-.1209zm-5.9375 71.1592c-.0311.7518-.3515 1.4626-.8944 1.9837-.5428.5211-1.266.8122-2.0185.8125s-1.4759-.2902-2.0192-.8108-.8643-1.2311-.8961-1.9828l-1.4918-38.3672h8.8135zm1.2927-41.4896h-8.4287l2.2352-15.2377c1.2615.2468 2.5578.2574 3.8232.0312zm1.9744-21.7879c-.6163 1.0956-1.513 2.0077-2.598 2.6427-1.0849.635-2.3193.9701-3.5764.9709-1.2572.0009-2.4919-.3326-3.5778-.9661-1.0858-.6336-1.9836-1.5445-2.6015-2.6393-1.15-2.0012-1.1828-4.242-.0935-6.1592l6.265-8.70548 6.2695 8.73498c1.0864 1.9002 1.0555 4.1273-.0873 6.1215z"/><path d="m90.1537 18.0322c-.4144 0-.8118.1646-1.1049.4577-.293.293-.4576.6904-.4576 1.1048-.0043.8023-.3266 1.5702-.8962 2.1352-.5697.565-1.3402.881-2.1425.8787-.4144 0-.8118.1646-1.1048.4576-.2931.2931-.4577.6905-.4577 1.1049s.1646.8118.4577 1.1048c.293.2931.6904.4577 1.1048.4577 1.6309.0015 3.1957-.6441 4.3512-1.7949 1.1555-1.1509 1.8074-2.7131 1.8125-4.344 0-.4144-.1646-.8118-.4577-1.1048-.293-.2931-.6904-.4577-1.1048-.4577zm-22.7055 55.5465c-5.6867-1.4982-10.0662-5.8789-11.9795-12.0187-.3863-1.2321-.5839-2.5156-.5859-3.8069.0021-1.291.1997-2.5743.5859-3.8062 1.9141-6.1397 6.2828-10.5203 11.9694-12.019 1.1169-.2851 2.1389-.8599 2.9628-1.6662.8239-.8064 1.4206-1.8158 1.7297-2.9263.3123-1.0921.3308-2.2473.0536-3.3488s-.8403-2.1103-1.6323-2.9245c-.1172-.1215-.2334-.2428-.3529-.3639-7.1703-7.2726-16.8606-11.3025-27.2869-11.3476h-.1758c-10.3563 0-20.0098 3.941-27.1982 11.1072-3.5921 3.581-6.44213 7.8357-8.38665 12.5203s-2.94532 9.7069-2.94503 14.779 1.00167 10.0943 2.94672 14.7787c1.94505 4.6843 4.79556 8.9387 8.38806 12.5193 7.1875 7.1642 16.8392 11.1031 27.1939 11.1031h.1795c10.4258-.0457 20.1154-4.0758 27.284-11.3476.1195-.1213.2384-.2433.3565-.3663.7922-.8139 1.3555-1.8225 1.6331-2.9239s.2595-2.2565-.0523-3.3487c-.308-1.1104-.9037-2.1198-1.7268-2.9263-.8231-.8064-1.8444-1.3814-2.9609-1.6667zm.8539 8.6994c-.1086.1129-.2176.2252-.3287.3375-6.5807 6.6752-15.4851 10.3746-25.0728 10.4166-.0555 0-.1098 0-.1653 0-9.5215 0-18.3906-3.6158-24.9883-10.1914-3.3012-3.2902-5.9207-7.1997-7.708-11.5043-1.7874-4.3046-2.70758-8.9197-2.70782-13.5806-.00023-4.6609.91948-9.2761 2.70642-13.5809 1.7869-4.3047 4.4059-8.2145 7.7069-11.5051 6.5986-6.5785 15.4687-10.1953 24.9922-10.1953h.1625c9.5885.0414 18.4939 3.7408 25.0752 10.4162.1103.1119.2193.2238.3269.336.4163.4204.7124.9446.8577 1.5182.1452.5736.1343 1.1756-.0317 1.7435-.1632.5852-.4781 1.117-.9127 1.5415s-.9736.7268-1.5625.8762c-6.7498 1.7786-11.9058 6.9217-14.1467 14.111-.9427 3.0872-.9427 6.3855 0 9.4726 2.2407 7.1893 7.3969 12.3325 14.1467 14.1118.5887.1492 1.1276.4512 1.5622.8755.4346.4242.7495.9556.913 1.5405.166.5676.1769 1.1694.0318 1.7427-.1451.5734-.441 1.0974-.857 1.5178z"/><path d="m46.2606 74.9492c-.9239.9238-1.553 2.1008-1.8079 3.3821-.2549 1.2814-.1241 2.6095.3759 3.8165.4999 1.207 1.3466 2.2387 2.4328 2.9645 1.0863.7258 2.3634 1.1132 3.6699 1.1132 1.3064 0 2.5835-.3874 3.6698-1.1132 1.0862-.7258 1.9329-1.7575 2.4328-2.9645.5-1.207.6308-2.5351.3759-3.8165-.2549-1.2813-.884-2.4583-1.8078-3.3821-.6105-.6185-1.3377-1.1096-2.1395-1.4448s-1.6622-.5078-2.5312-.5078c-.8691 0-1.7295.1726-2.5313.5078s-1.529.8263-2.1394 1.4448zm7.1314 7.1317c-.5693.5692-1.3184.9234-2.1196 1.0022s-1.605-.1226-2.2743-.5699c-.6694-.4474-1.1629-1.113-1.3966-1.8834-.2336-.7704-.1929-1.598.1152-2.3418.3082-.7437.8647-1.3577 1.5747-1.7371.71-.3795 1.5296-.5011 2.3192-.344s1.5003.5831 2.0111 1.2054c.5107.6224.7898 1.4025.7898 2.2076-.0004.923-.3671 1.8081-1.0195 2.461zm-27.8613-18.9754c-.9236-.9225-2.0999-1.5505-3.3803-1.8046-1.2803-.2541-2.6073-.1229-3.8131.377-1.2059.4998-2.2364 1.346-2.9615 2.4314-.725 1.0855-1.112 2.3615-1.112 3.6669 0 1.3053.387 2.5814 1.112 3.6668.7251 1.0855 1.7556 1.9316 2.9615 2.4315 1.2058.4999 2.5328.6311 3.8131.3769 1.2804-.2541 2.4567-.882 3.3803-1.8045 1.2369-1.2397 1.9315-2.9195 1.9315-4.6707 0-1.7513-.6946-3.431-1.9315-4.6707zm-2.2104 7.1324c-.4866.4861-1.1064.8171-1.7811.951s-1.3739.0648-2.0093-.1986c-.6354-.2633-1.1785-.7092-1.5605-1.2811-.3821-.572-.586-1.2444-.586-1.9322 0-.6879.2039-1.3603.586-1.9322.382-.572.9251-1.0178 1.5605-1.2812s1.3346-.3325 2.0093-.1986c.6747.134 1.2945.4649 1.7811.951.6517.6532 1.0178 1.5382 1.0178 2.461 0 .9227-.3661 1.8077-1.0178 2.4609zm-3.5754-13.3141c1.5273-.0011 3.0069-.5317 4.1867-1.5014 1.1799-.9696 1.9871-2.3184 2.2841-3.8165.2969-1.4981.0653-3.0528-.6555-4.3992-.7207-1.3465-1.886-2.4013-3.2974-2.985-1.4113-.5836-2.9813-.6598-4.4425-.2157-1.4612.4442-2.7233 1.3812-3.5711 2.6515s-1.229 2.7952-1.0785 4.315c.1504 1.5198.8231 2.9405 1.9035 4.0199.613.6137 1.3411 1.1002 2.1427 1.4317.8015.3314 1.6607.5013 2.528.4997zm-2.4609-9.0625c.4867-.4867 1.1068-.8181 1.7819-.9524s1.3749-.0654 2.0108.198c.636.2634 1.1795.7095 1.5619 1.2818.3825.5724.5866 1.2452.5866 1.9336 0 .6883-.2041 1.3612-.5866 1.9335-.3824.5723-.9259 1.0184-1.5619 1.2818-.6359.2634-1.3357.3324-2.0108.1981s-1.2952-.4658-1.7819-.9525c-.6519-.6532-1.0181-1.5384-1.0181-2.4612 0-.9229.3662-1.808 1.0181-2.4613zm13.8584-4.9427c1.5272-.0012 3.0068-.5317 4.1867-1.5014s1.9871-2.3185 2.284-3.8166c.297-1.498.0654-3.0527-.6554-4.3992-.7208-1.3464-1.8861-2.4013-3.2974-2.9849-1.4113-.5837-2.9813-.6599-4.4426-.2157-1.4612.4441-2.7232 1.3811-3.571 2.6514s-1.229 2.7953-1.0786 4.3151c.1505 1.5198.8232 2.9404 1.9036 4.0198.6129.6137 1.3411 1.1002 2.1426 1.4317.8016.3315 1.6607.5013 2.5281.4998zm-2.461-9.0625c.4868-.4868 1.1069-.8182 1.782-.9525s1.3749-.0654 2.0108.198c.6359.2635 1.1795.7095 1.5619 1.2819.3824.5723.5865 1.2452.5865 1.9335s-.2041 1.3612-.5865 1.9335c-.3824.5724-.926 1.0184-1.5619 1.2818-.6359.2635-1.3357.3324-2.0108.1981s-1.2952-.4657-1.782-.9525c-.3246-.3224-.5822-.7058-.758-1.1283-.1758-.4224-.2663-.8754-.2663-1.3329 0-.4576.0905-.9106.2664-1.333.1758-.4224.4335-.8058.7581-1.1282zm20.9299 6.8666c1.5269-.0012 3.0062-.5318 4.1858-1.5013 1.1797-.9695 1.9867-2.318 2.2836-3.8157.2969-1.4978.0653-3.0522-.6553-4.3984-.7206-1.3461-1.8857-2.4008-3.2967-2.9844-1.411-.5835-2.9807-.6598-4.4416-.2159-1.4609.444-2.7228 1.3808-3.5705 2.6507-.8478 1.27-1.229 2.7946-1.0787 4.3141.1502 1.5195.8227 2.9399 1.9027 4.0192.613.6137 1.3412 1.1002 2.1427 1.4317s1.6607.5014 2.528.5zm-2.4609-9.0625c.4867-.4867 1.1068-.8181 1.7819-.9523.675-.1343 1.3747-.0653 2.0106.1981s1.1794.7094 1.5617 1.2817c.3824.5723.5865 1.2451.5865 1.9334s-.2041 1.3611-.5865 1.9334c-.3823.5723-.9258 1.0183-1.5617 1.2817s-1.3356.3324-2.0106.1981c-.6751-.1342-1.2952-.4656-1.7819-.9523-.3232-.3231-.5796-.7068-.7546-1.129-.1749-.4223-.2649-.8748-.2649-1.3319s.09-.9096.2649-1.3319c.175-.4222.4314-.8059.7546-1.129zm-18.3629 43.4961c-.9237.9237-1.5528 2.1007-1.8077 3.382-.2548 1.2813-.124 2.6093.3759 3.8163.5 1.2069 1.3466 2.2385 2.4328 2.9643 1.0863.7258 2.3633 1.1132 3.6697 1.1132s2.5834-.3874 3.6697-1.1132c1.0862-.7258 1.9328-1.7574 2.4328-2.9643.4999-1.207.6307-2.535.3759-3.8163-.2549-1.2813-.8839-2.4583-1.8077-3.382-1.2397-1.237-2.9194-1.9317-4.6707-1.9317s-3.431.6947-4.6707 1.9317zm7.1314 7.1316c-.4866.4862-1.1064.8172-1.7812.9512-.6747.1339-1.374.0649-2.0094-.1985-.6355-.2634-1.1786-.7093-1.5607-1.2813s-.5861-1.2445-.5861-1.9323c0-.6879.204-1.3604.5861-1.9324s.9252-1.0179 1.5607-1.2812c.6354-.2634 1.3347-.3325 2.0094-.1985.6748.1339 1.2946.4649 1.7812.9511.6517.6532 1.0176 1.5381 1.0176 2.4608 0 .9226-.3659 1.8075-1.0176 2.4607zm14.5118-24.5994c-.0001-1.9444-.5767-3.845-1.6569-5.4617-1.0803-1.6166-2.6157-2.8767-4.412-3.6207-1.7964-.7441-3.773-.9387-5.68-.5594-1.907.3794-3.6587 1.3157-5.0335 2.6906-1.3749 1.3749-2.3112 3.1265-2.6905 5.0335s-.1846 3.8837.5595 5.68c.7441 1.7964 2.0041 3.3317 3.6208 4.412 1.6167 1.0802 3.5174 1.6567 5.4617 1.6567 2.6064-.0029 5.1053-1.0396 6.9483-2.8827 1.843-1.843 2.8797-4.3419 2.8826-6.9483zm-9.8309 6.706c-1.3263 0-2.6228-.3933-3.7256-1.1301-1.1028-.7369-1.9623-1.7842-2.4698-3.0095-.5076-1.2254-.6404-2.5737-.3816-3.8745.2588-1.3009.8975-2.4957 1.8353-3.4336.9379-.9378 2.1328-1.5764 3.4336-1.8352 1.3008-.2587 2.6491-.1259 3.8745.3817 1.2253.5076 2.2726 1.3671 3.0094 2.4699s1.1301 2.3994 1.1301 3.7257c-.0021 1.7778-.7092 3.4823-1.9664 4.7394-1.2571 1.2572-2.9616 1.9643-4.7395 1.9662z"/></g></svg>