<svg fill="none" height="100" viewBox="0 0 100 100" width="100" xmlns="http://www.w3.org/2000/svg"><g fill="#000"><path d="m57.0215 19.315c2.7064 0 4.9079-2.2014 4.9079-4.9079 0-2.7051-2.2015-4.90654-4.9079-4.90654-2.7051 0-4.9066 2.20144-4.9066 4.90654 0 2.7065 2.2015 4.9079 4.9066 4.9079zm0-6.9573c1.1314 0 2.0507.9194 2.0507 2.0494 0 1.1314-.9193 2.0508-2.0507 2.0508-1.1301 0-2.0494-.9194-2.0494-2.0508 0-1.13.9193-2.0494 2.0494-2.0494zm-9.1197 2.0494c0-2.7051-2.2015-4.90654-4.9066-4.90654-2.7064 0-4.9079 2.20144-4.9079 4.90654 0 2.7065 2.2015 4.9079 4.9079 4.9079 2.7051 0 4.9066-2.2014 4.9066-4.9079zm-6.9574 0c0-1.13.9194-2.0494 2.0508-2.0494 1.1301 0 2.0494.9194 2.0494 2.0494 0 1.1314-.9193 2.0508-2.0494 2.0508-1.1314 0-2.0508-.9194-2.0508-2.0508zm20.1437 26.8889h-22.1637c-.7897 0-1.4286.639-1.4286 1.4286v9.4043c0 .7896.6389 1.4286 1.4286 1.4286h22.1637c.7897 0 1.4286-.639 1.4286-1.4286v-9.4043c0-.7896-.6389-1.4286-1.4286-1.4286zm-1.4285 9.4043h-19.3067v-6.5471h19.3067z"/><path d="m87.5377 61.9242v-7.5897c0-4.6988-3.4678-8.5923-7.9771-9.2839v-2.1725c0-1.2472-1.0143-2.2629-2.2615-2.2629h-6.0133c-2.7572-5.7763-8.1173-10.2283-14.687-12.0446v-2.6136h9.1643c1.5737 0 2.853-1.2793 2.853-2.8529v-17.394c0-1.57366-1.2793-2.85295-2.853-2.85295h-31.5094c-1.5737 0-2.853 1.27929-2.853 2.85295v17.394c0 1.5736 1.2793 2.8529 2.853 2.8529h9.1643v2.6123c-6.5724 1.8153-11.9346 6.2678-14.6926 12.0459h-6.0245c-1.2472 0-2.2614 1.0157-2.2614 2.2629v2.1725c-4.5094.6916-7.9771 4.5851-7.9771 9.2839v7.5897c-2.75709.6501-4.82147 3.1173-4.82147 6.0697 0 3.4458 2.80417 6.25 6.24997 6.25 3.4459 0 6.25-2.8042 6.25-6.25 0-2.9524-2.0644-5.4196-4.8214-6.0697v-7.5897c0-3.1185 2.196-5.7247 5.12-6.3795v1.8846c0 1.2472 1.0142 2.2614 2.2614 2.2614h3.9997v15.9529c0 .7896.639 1.4285 1.4286 1.4285h5.8887v7.7904c-.3433.6953-.5539 1.4671-.5539 2.2933 0 .8263.2106 1.5979.5539 2.2932v6.8042h-2.4554c-.7896 0-1.4285.639-1.4285 1.4286v5.6222c0 .7896.6389 1.4286 1.4285 1.4286h14.2537c.7896 0 1.4285-.639 1.4285-1.4286v-5.6222c0-.7896-.6389-1.4286-1.4285-1.4286h-2.4554v-6.8117c.3409-.6935.5497-1.4626.5497-2.2857s-.2088-1.5921-.5497-2.2856v-7.7981h13.291v7.7904c-.3433.6953-.5538 1.4671-.5538 2.2933 0 .8263.2105 1.5979.5538 2.2932v6.8042h-2.4553c-.7897 0-1.4286.639-1.4286 1.4286v5.6222c0 .7896.6389 1.4286 1.4286 1.4286h14.2536c.7896 0 1.4286-.639 1.4286-1.4286v-5.6222c0-.7896-.639-1.4286-1.4286-1.4286h-2.4554v-6.8117c.341-.6935.5497-1.4626.5497-2.2857s-.2087-1.5921-.5497-2.2856v-7.7981h5.8873c.7896 0 1.4286-.6389 1.4286-1.4285v-15.9529h3.9885c1.2472 0 2.2615-1.0142 2.2615-2.2614v-1.8846c2.9239.6548 5.1199 3.261 5.1199 6.3795v7.5897c-2.757.6501-4.8214 3.1173-4.8214 6.0697 0 3.4458 2.8042 6.25 6.25 6.25 3.4459 0 6.25-2.8042 6.25-6.25 0-2.9524-2.0644-5.4196-4.8214-6.0697zm-70.2539 6.0697c0 1.8708-1.5221 3.3928-3.3929 3.3928s-3.3928-1.522-3.3928-3.3928 1.522-3.3929 3.3928-3.3929 3.3929 1.5221 3.3929 3.3929zm19.0374 11.5722c0-1.3044 1.0616-2.366 2.366-2.366 1.3045 0 2.3661 1.0616 2.3661 2.366s-1.0616 2.3661-2.3661 2.3661c-1.3044 0-2.366-1.0617-2.366-2.3661zm4.1825-4.8788c-.568-.2124-1.1754-.3444-1.8165-.3444-.6395 0-1.2453.1319-1.8122.3432v-5.1981h3.6287zm3.8839 19.5984h-11.3965v-2.765h2.4554 6.4857 2.4554zm-7.5126-5.6222v-4.2173c.5669.2113 1.1727.3431 1.8122.3431.6411 0 1.2485-.1321 1.8165-.3445v4.2187zm22.0801-9.0974c0-1.3044 1.0617-2.366 2.3661-2.366s2.366 1.0616 2.366 2.366-1.0616 2.3661-2.366 2.3661-2.3661-1.0617-2.3661-2.3661zm4.1825-4.8788c-.568-.2124-1.1754-.3444-1.8164-.3444-.6396 0-1.2454.1319-1.8122.3432v-5.1981h3.6286zm3.8839 19.5984h-11.3965v-2.765h2.4554 6.4858 2.4553zm-7.5125-5.6222v-4.2173c.5668.2113 1.1726.3431 1.8122.3431.641 0 1.2484-.1321 1.8164-.3445v4.2187zm-25.2512-82.94921 31.5012-.00419.0041 17.3898-10.5859.0014c-.0024 0-.0045-.0014-.007-.0014h-10.3236c-.0049 0-.0089.0027-.0138.0028l-10.575.0014zm12.0173 20.24271h7.4666v2.0186c-1.2196-.1849-2.4616-.3068-3.7361-.3068-1.2726 0-2.5127.1216-3.7305.3061zm-22.9785 17.5154h4.3192c-.5632 1.8384-.8827 3.7706-.9036 5.7715h-3.4156zm47.1568 23.1529h-40.8956v-17.168c0-8.7664 6.4775-16.1379 15.2273-18.2825.0215.001.0397.0124.0615.0124.2449 0 .4644-.0775.6657-.1859 1.4481-.3021 2.9481-.4753 4.4933-.4753 1.538 0 3.0314.1711 4.4733.4705.2078.1178.4352.2033.6913.2033.0309 0 .0566-.0156.087-.0175 8.734 2.1543 15.1962 9.5189 15.1962 18.275zm6.25-17.3814h-3.4044c-.0209-2.0009-.3404-3.9331-.9036-5.7715h4.308zm9.4057 22.1428c-1.8708 0-3.3928-1.522-3.3928-3.3928s1.522-3.3929 3.3928-3.3929 3.3929 1.5221 3.3929 3.3929-1.5221 3.3928-3.3929 3.3928z"/></g></svg>