<svg fill="none" height="100" viewBox="0 0 100 100" width="100" xmlns="http://www.w3.org/2000/svg"><path d="m80.75 9v20.5h6.8333c.9062 0 1.7752-.36 2.416-1.0007.6407-.6408 1.0007-1.5098 1.0007-2.416v-13.6666c0-.9062-.36-1.7752-1.0007-2.416-.6408-.64073-1.5098-1.0007-2.416-1.0007z" fill="#539649"/><path d="m61.9583 51.7085v22.2083h10.25v-18.7916c0-.9062-.36-1.7752-1.0007-2.416-.6408-.6407-1.5098-1.0007-2.416-1.0007zm18.7917 20.5v18.7917h6.8333c.9062 0 1.7752-.36 2.416-1.0008.6407-.6407 1.0007-1.5097 1.0007-2.4159v-11.9583c0-.9062-.36-1.7752-1.0007-2.416-.6408-.6407-1.5098-1.0007-2.416-1.0007z" fill="#b33939"/><path d="m80.75 9h-30.75c-.9062 0-1.7752.35997-2.416 1.0007-.6407.6408-1.0007 1.5098-1.0007 2.416v13.6666c0 .9062.36 1.7752 1.0007 2.416.6408.6407 1.5098 1.0007 2.416 1.0007h30.75c.9061 0 1.7752-.36 2.4159-1.0007.6408-.6408 1.0007-1.5098 1.0007-2.416v-13.6666c0-.9062-.3599-1.7752-1.0007-2.416-.6407-.64073-1.5098-1.0007-2.4159-1.0007z" fill="#5eb254"/><path d="m23.2679 31.2085v23.6672h11.357v-20.2505c0-.9062-.3599-1.7752-1.0007-2.416-.6407-.6407-1.5098-1.0007-2.4159-1.0007z" fill="#e4c437"/><path d="m80.7499 72.2085h-15.375v-17.0833c0-.9062-.3599-1.7752-1.0007-2.416-.6407-.6407-1.5098-1.0007-2.4159-1.0007h-30.75c-.9062 0-1.7752.36-2.416 1.0007-.6407.6408-1.0007 1.5098-1.0007 2.416h-4.5237v18.8036h19.1505v17.0714h38.3315c.9062 0 1.7752-.36 2.416-1.0008.6407-.6407 1.0007-1.5097 1.0007-2.4159v-11.9583c0-.9062-.36-1.7752-1.0007-2.416-.6408-.6407-1.5098-1.0007-2.416-1.0007z" fill="#db4342"/><path d="m27.7917 70.5002v-35.875c0-.9062-.36-1.7752-1.0008-2.416-.6407-.6407-1.5097-1.0007-2.4159-1.0007h-11.9583c-.9062 0-1.7752.36-2.416 1.0007-.64073.6408-1.0007 1.5098-1.0007 2.416v56.375h39.2917v-20.5z" fill="#f2dc36"/><path d="m9 50h19.1111v1.7083h-19.1111zm0 18.7746h18.7917v1.7083h-18.7917z" fill="#e4c437"/><path d="m48.343 70.4741h18.7404v1.7084h-18.7404z" fill="#b33939"/><path d="m27.7917 70.4829h1.7083v20.4932h-1.7083z" fill="#e4c437"/><path d="m46.5833 51.7085h1.7083v18.7404h-1.7083z" fill="#b33939"/><path d="m64.8027 9h1.7084v20.5h-1.7084z" fill="#539649"/><path d="m65.375 70.4741h1.7083v20.5h-1.7083z" fill="#b33939"/></svg>