<svg viewBox="0 0 24 24" xmlns="http://www.w3.org/2000/svg"><path d="m3.345 21.601-1.926-21.601h21.162l-1.928 21.598-8.666 2.402z" fill="#e44d26"/><path d="m12 22.164 7.002-1.942 1.648-18.456h-8.65z" fill="#f16529"/><path d="m12 9.778h-3.505l-.243-2.713h3.748v-2.65h-6.643l.063.711.651 7.3h5.929zm0 6.88-.012.003-2.95-.797-.189-2.113h-2.659l.371 4.16 5.427 1.507.012-.004z" fill="#ebebeb"/><path d="m11.991 9.778v2.649h3.263l-.308 3.436-2.955.797v2.756l5.431-1.505.04-.448.623-6.974.064-.712h-6.158zm0-5.363v2.65h6.399l.053-.596.121-1.343.063-.711z" fill="#fff"/><path d="m12 23.996-.013.004h.013z" fill="#dedede"/><path d="m12 7.065h-3.748l.242 2.713h3.506zm0-7.065h-10.581l1.926 21.601 8.642 2.399.013-.004v-4.582l-.012.004-5.427-1.507-.371-4.16h2.659l.189 2.113 2.95.797.003-.001.009-.002v-4.231h-5.929l-.651-7.3-.063-.712h6.643z" fill="#c64321"/><path d="m8.849 13.751h-2.659l.371 4.16 5.427 1.507.012-.004-.009.002v-2.756l-.003.001-2.95-.797zm3.142-9.336h-6.634l.063.711.651 7.3h5.929-.009v-2.648h-3.496l-.243-2.713h3.748-.009z" fill="#cdcdcd"/><path d="m12 16.658-.009.002v2.756l.009-.002zm0-6.88h-.009v2.649h.009zm0-5.363h-.009v2.65h.009z" fill="#dedede"/></svg>