<svg fill="none" height="100" viewBox="0 0 100 100" width="100" xmlns="http://www.w3.org/2000/svg"><path d="m12.8995 7.5c-2.9567 0-5.3995 2.4428-5.3995 5.3995v74.201c0 2.9567 2.4428 5.3995 5.3995 5.3995h74.201c2.9567 0 5.3995-2.4349 5.3995-5.3995v-74.201c0-2.9567-2.4349-5.3995-5.3995-5.3995zm0 4.0476h74.201c.7511 0 1.3519.6008 1.3519 1.3519v74.201c0 .7511-.6008 1.3519-1.3519 1.3519h-74.201c-.7511 0-1.3519-.6008-1.3519-1.3519v-74.201c0-.7511.6008-1.3519 1.3519-1.3519zm33.0529 34.4048v25.4478c0 3.9053-1.4784 4.9093-4.0476 4.9093-2.6879 0-4.5536-1.6759-5.7869-3.85l-6.356 3.85c1.842 3.8974 6.356 8.0953 12.6172 8.0953 6.9252 0 11.6685-3.684 11.6685-11.7713v-26.6811zm25.2027 0c-6.8936 0-11.3127 4.4113-11.3127 10.206 0 6.2849 3.7076 9.2573 9.281 11.629l1.929.8301c3.5179 1.5415 5.2571 2.4823 5.2571 5.1306 0 2.2057-1.6759 3.8026-4.8777 3.8026-3.8104 0-5.6129-2.5851-7.2651-5.2888l-6.0715 4.0476c2.2689 4.4824 6.3403 8.0953 13.5105 8.0953 7.3364 0 12.7991-3.8105 12.7991-10.7594 0-6.4509-3.6998-9.3206-10.2693-12.135l-1.9289-.8222c-3.3124-1.4388-4.7512-2.3716-4.7512-4.6879 0-1.8736 1.4388-3.3124 3.6997-3.3124 2.2215 0 3.6445.9407 4.9647 3.3124l6.0161-3.8579c-2.5377-4.4824-6.0714-6.19-10.9808-6.19z" fill="#b3911c"/></svg>