<svg fill="none" height="100" viewBox="0 0 100 100" width="100" xmlns="http://www.w3.org/2000/svg"><g fill="#00873a"><path d="m50 94.9247c-1.2422 0-2.4017-.3302-3.4783-.908l-11.0145-6.521c-1.6563-.908-.8281-1.2381-.3312-1.4032 2.236-.7429 2.6501-.908 4.9689-2.2287.2485-.1651.5797-.0826.8282.0825l8.4472 5.0352c.3313.1651.7453.1651.9938 0l33.0435-19.0677c.3312-.1651.4969-.4953.4969-.908v-38.0529c0-.4127-.1657-.7429-.4969-.908l-33.0435-18.9851c-.3313-.1651-.7454-.1651-.9938 0l-33.0435 18.9851c-.3313.1651-.4969.5779-.4969.908v38.0529c0 .3302.1656.7429.4969.908l9.0269 5.2003c4.8862 2.4763 7.9503-.4127 7.9503-3.3018v-37.5576c0-.4953.4141-.9905.9938-.9905h4.2236c.4969 0 .9938.4127.9938.9905v37.5576c0 6.521-3.5611 10.318-9.7722 10.318-1.9048 0-3.3955 0-7.6191-2.0636l-8.6956-4.9526c-2.1532-1.2382-3.4783-3.5494-3.4783-6.0257v-38.0529c0-2.4764 1.3251-4.7876 3.4783-6.0258l33.0434-19.06767c2.0704-1.15562 4.8862-1.15562 6.9566 0l33.0434 19.06767c2.1533 1.2382 3.4783 3.5494 3.4783 6.0258v38.0529c0 2.4763-1.325 4.7875-3.4783 6.0257l-33.0434 19.0677c-1.0766.4953-2.3189.7429-3.4783.7429zm10.1863-26.1665c-14.4927 0-17.4741-6.6036-17.4741-12.2166 0-.4952.4141-.9905.9938-.9905h4.3064c.4969 0 .911.3302.911.8254.6625 4.3749 2.5673 6.521 11.3457 6.521 6.9566 0 9.9379-1.5683 9.9379-5.2828 0-2.1461-.8281-3.7145-11.677-4.7876-9.0269-.9079-14.6584-2.889-14.6584-10.0703 0-6.6861 5.6315-10.6483 15.0725-10.6483 10.6004 0 15.8178 3.632 16.4803 11.5562 0 .2477-.0828.4953-.2484.7429-.1657.1651-.4141.3302-.6625.3302h-4.3065c-.414 0-.8281-.3302-.9109-.7429-.9938-4.5399-3.5611-6.0257-10.352-6.0257-7.619 0-8.53 2.6414-8.53 4.6225 0 2.3937 1.0766 3.1366 11.3457 4.4574 10.1864 1.3207 14.9897 3.2192 14.9897 10.318-.0828 7.2639-6.0456 11.3911-16.5632 11.3911z"/><path d="m42.7122 56.5416c0 5.613 2.9814 12.2166 17.4741 12.2166 10.5176 0 16.4804-4.1272 16.5632-11.3911 0-7.0988-4.8033-8.9973-14.9897-10.318-10.2691-1.3208-11.3457-2.0637-11.3457-4.4574 0-1.9811.911-4.6225 8.53-4.6225 6.7909 0 9.3582 1.4858 10.352 6.0257.0828.4127.4969.7429.9109.7429h4.3065c.2484 0 .4968-.1651.6625-.3302.1656-.2476.2484-.4952.2484-.7429-.6625-7.9242-5.8799-11.5562-16.4803-11.5562-9.441 0-15.0725 3.9622-15.0725 10.6483 0 7.1813 5.6315 9.1624 14.6584 10.0703 10.8489 1.0731 11.677 2.6415 11.677 4.7876 0 3.7145-2.9813 5.2828-9.9379 5.2828-8.7784 0-10.6832-2.1461-11.3457-6.521 0-.4952-.4141-.8254-.911-.8254h-4.3064c-.5797 0-.9938.4953-.9938.9905z"/></g></svg>