<svg fill="none" height="40" viewBox="0 0 65 40" width="65" xmlns="http://www.w3.org/2000/svg" xmlns:xlink="http://www.w3.org/1999/xlink"><linearGradient id="a" gradientUnits="userSpaceOnUse" x1="28.1609" x2="19.3551" y1="8.0867" y2="26.0504"><stop offset=".3" stop-color="#3e863d"/><stop offset=".5" stop-color="#55934f"/><stop offset=".8" stop-color="#5aad45"/></linearGradient><linearGradient id="b" gradientUnits="userSpaceOnUse" x1="15.7933" x2="31.8326" y1="23.1001" y2="11.249"><stop offset=".57" stop-color="#3e863d"/><stop offset=".72" stop-color="#619857"/><stop offset="1" stop-color="#76ac64"/></linearGradient><linearGradient id="c" gradientUnits="userSpaceOnUse" x1="17.322" x2="30.5843" y1="17.063" y2="17.063"><stop offset=".16" stop-color="#6bbf47"/><stop offset=".38" stop-color="#79b461"/><stop offset=".47" stop-color="#75ac64"/><stop offset=".7" stop-color="#659e5a"/><stop offset=".9" stop-color="#3e863d"/></linearGradient><clipPath id="d"><path d="m.142883.333374h64v39.1966h-64z"/></clipPath><mask id="e" height="16" maskUnits="userSpaceOnUse" width="15" x="16" y="9"><path d="m23.3954 9.38842-6.0951 3.51808c-.2283.1316-.3684.3747-.3684.6374v7.0411c0 .2628.1401.5057.3684.6374l6.0956 3.5208c.2278.1312.5088.1312.7364 0l6.0945-3.5208c.2272-.1317.3675-.3747.3675-.6374v-7.0411c0-.2627-.1403-.5058-.3689-.6374l-6.0937-3.51808c-.1143-.06554-.2416-.09838-.3689-.09838s-.2547.03284-.3689.09838" fill="#fff"/></mask><mask id="f" height="16" maskUnits="userSpaceOnUse" width="14" x="17" y="9"><path d="m17.083 21.032c.0583.0757.1312.1412.217.1904l5.2286 3.0201.8709.5006c.1302.0752.2787.1071.4245.0962.0486-.0039.0972-.013.1447-.0265l6.4285-11.7707c-.0492-.0536-.1068-.0984-.1713-.136l-3.991-2.3047-2.1097-1.21381c-.0599-.03472-.1249-.05932-.191-.07668z" fill="#fff"/></mask><mask id="g" height="16" maskUnits="userSpaceOnUse" width="14" x="17" y="9"><path d="m23.6899 9.29413c-.1023.01013-.2023.04195-.2944.09433l-6.0778 3.50794 6.5538 11.9371c.0911-.013.1808-.0434.2618-.0903l6.0952-3.5208c.1881-.1091.3168-.2937.3559-.5029l-6.6811-11.41336c-.0492-.0097-.0984-.01476-.149-.01476-.0203 0-.0405.00101-.0608.00289" fill="#fff"/></mask><g clip-path="url(#d)"><path d="m31.7759 39.5302c-.2113 0-.4211-.0554-.6062-.1621l-1.9296-1.1423c-.2882-.1612-.1475-.2182-.0525-.251.3843-.1346.4623-.165.8724-.3979.0431-.0246.0995-.0159.1437.0101l1.4823.8797c.0535.0289.1295.0289.1791 0l5.7798-3.3362c.0535-.0304.0882-.0926.0882-.1563v-6.6695c0-.0666-.0347-.1259-.0894-.1591l-5.7774-3.3334c-.0536-.0318-.1244-.0318-.178 0l-5.7763 3.3334c-.056.0318-.0915.094-.0915.1576v6.6696c0 .0636.0347.1244.0896.1548l1.5828.9143c.8594.4297 1.3845-.0767 1.3845-.5859v-6.5827c0-.0941.0738-.1664.1679-.1664h.732c.0912 0 .1664.0723.1664.1664v6.5856c0 1.1458-.625 1.8041-1.7115 1.8041-.3342 0-.5975 0-1.3325-.3617l-1.5162-.8739c-.3747-.217-.6062-.6221-.6062-1.0546v-6.6696c0-.434.2315-.8391.6062-1.0532l5.7856-3.3376c.366-.2069.8521-.2069 1.2153 0l5.7783 3.3391c.3732.2155.6062.6192.6062 1.0532v6.6695c0 .4326-.233.8362-.6062 1.0532l-5.7783 3.3377c-.1852.1071-.395.162-.6091.162" fill="#689f63"/><path d="m33.5607 34.9343c-2.5289 0-3.0591-1.1609-3.0591-2.1346 0-.0926.0746-.1663.1674-.1663h.7465c.0825 0 .1519.06.1649.1414.1129.7607.4485 1.1444 1.9777 1.1444 1.2182 0 1.7361-.2751 1.7361-.9211 0-.3718-.1475-.6482-2.0399-.8334-1.5827-.1562-2.5607-.5049-2.5607-1.7708 0-1.1661.9838-1.8605 2.6316-1.8605 1.8504 0 2.7676.6424 2.8834 2.0226.0043.0477-.013.094-.0449.1287-.0318.0333-.0766.0536-.1229.0536h-.7509c-.0781 0-.1461-.055-.162-.1303-.1809-.8-.6178-1.0561-1.8056-1.0561-1.3295 0-1.4844.463-1.4844.8102 0 .421.1823.544 1.9763.7812 1.7766.2359 2.6201.5686 2.6201 1.8172 0 1.2586-1.0504 1.9806-2.882 1.9806m7.0399-7.0732h.1939c.1591 0 .1895-.1114.1895-.1765 0-.1707-.1172-.1707-.1823-.1707h-.1996zm-.2358-.5469h.4297c.1476 0 .4369 0 .4369.3299 0 .23-.1476.2778-.2358.3067.1722.0116.1837.1244.2069.2836.0115.0998.0304.272.0651.3298h-.2648c-.0072-.0578-.0477-.3761-.0477-.3935-.0174-.0709-.042-.1056-.1302-.1056h-.2185v.5006h-.2416zm-.5165.6221c0 .518.4181.9375.9317.9375.518 0 .9361-.4282.9361-.9375 0-.5193-.4239-.9317-.9375-.9317-.5064 0-.9317.4066-.9317.9303m2.0486.0043c0 .6134-.5021 1.114-1.114 1.114-.6077 0-1.114-.4948-1.114-1.114 0-.6308.5179-1.114 1.114-1.114.6004 0 1.1125.4847 1.1125 1.114" fill="#689f63"/><path clip-rule="evenodd" d="m13.8779 13.4337c0-.2662-.1403-.5107-.3701-.6431l-6.12781-3.52575c-.10344-.06076-.21932-.09259-.3368-.09693h-.06337c-.11747.00434-.23336.03617-.33854.09693l-6.127556 3.52575c-.228297.1331-.370658.3776-.370658.6438l.013455 9.4964c0 .1317.067997.2547.183737.3198.112847.0694.254628.0694.367475 0l3.642917-2.0862c.23003-.1369.37036-.3788.37036-.6424v-4.4365c0-.2647.14034-.5092.36965-.6409l1.55091-.8932c.11516-.0665.24161-.0995.37037-.0995.12674 0 .25608.0327.36805.0994l1.5502.8929c.22945.1317.37036.3762.37036.6409v4.4362c0 .2633.14222.5063.3711.6423l3.64055 2.0848c.1143.068.2566.068.3704 0 .1123-.0651.1835-.1881.1835-.3197zm28.9159 4.9444c0 .0661-.0351.1273-.0926.16l-2.1047 1.2132c-.0572.0329-.1278.0329-.1848 0l-2.105-1.2132c-.0579-.0329-.0926-.0941-.0926-.16v-2.43c0-.0663.0347-.1273.0912-.1606l2.1035-1.2153c.0579-.0332.1288-.0332.1867 0l2.105 1.2153c.0579.0333.0926.0943.0926.1606zm.5686-17.997883c-.1149-.063946-.2546-.06221-.3681.003907-.1128.06655-.1826.188077-.1826.319731v9.403845c0 .0926-.0491.178-.1293.2243-.0796.0463-.1787.0463-.259 0l-1.535-.88414c-.2285-.13223-.5101-.13223-.7395 0l-6.1299 3.53774c-.229.1317-.3704.3762-.3704.6395v7.0775c0 .2647.1414.5078.3704.6409l6.1299 3.5402c.2288.1316.5107.1316.7403 0l6.1298-3.5417c.2286-.1331.3704-.3761.3704-.6409v-17.63875c0-.26852-.1461-.51548-.3805-.6467zm20.4126 15.503983c.2277-.1323.3679-.3765.3679-.6398v-1.7153c0-.2638-.1403-.5073-.3685-.6401l-6.0908-3.5359c-.23-.1331-.5121-.1331-.7422 0l-6.1284 3.5373c-.23.1331-.3704.3762-.3704.6409v7.0746c0 .2662.1433.5122.3733.6438l6.0894 3.4708c.2242.1287.4991.1302.7262.0043l3.6834-2.0471c.1158-.0651.1896-.1881.1896-.3212s-.0709-.2575-.1867-.3226l-6.166-3.5388c-.1157-.0651-.1866-.1881-.1866-.3197v-2.2193c0-.1326.0694-.2547.1852-.3206l1.9183-1.1068c.1143-.0665.2547-.0665.369 0l1.9198 1.1068c.1143.0651.1852.188.1852.3197v1.7448c0 .1316.0709.2546.1852.3212.1143.0651.256.0651.3703-.0015z" fill="#fff" fill-rule="evenodd"/><path clip-rule="evenodd" d="m57.2224 15.553c.0434-.0256.0978-.0256.1418 0l1.1762.6785c.044.0255.0709.0724.0709.123v1.3585c0 .0507-.0269.0975-.0709.123l-1.1762.6785c-.044.0256-.0984.0256-.1418 0l-1.1755-.6785c-.0448-.0255-.0723-.0723-.0723-.123v-1.3585c0-.0506.0261-.0975.0709-.123z" fill="#689f63" fill-rule="evenodd"/><g mask="url(#e)"><path d="m36.7536 12.3093-17.1751-8.41868-8.8064 17.96488 17.1747 8.4191z" fill="url(#a)"/></g><g mask="url(#f)"><path d="m9.65695 14.7991 12.12735 16.4138 16.0387-11.8497-12.1281-16.41337z" fill="url(#b)"/></g><g mask="url(#g)"><path d="m17.3176 9.29138v15.54242h13.2642v-15.54242z" fill="url(#c)"/></g></g></svg>