<svg fill="none" height="40" viewBox="0 0 135 40" width="135" xmlns="http://www.w3.org/2000/svg" xmlns:xlink="http://www.w3.org/1999/xlink"><clipPath id="a"><path d="m-.000854 0h135.001v40h-135.001z"/></clipPath><g clip-path="url(#a)"><path d="m129.997 40h-124.99532c-2.74997 0-4.99990998-2.2499-4.99990998-4.9999v-29.99943c0-2.74997 2.24993998-4.99990706 4.99990998-4.99990706h124.99532c2.75 0 5 2.24993706 5 4.99990706v29.99943c0 2.75-2.25 4.9999-5 4.9999z" fill="#100f0d"/><path d="m129.997.00076294h-124.99532c-2.74997 0-4.99990998 2.24993706-4.99990998 4.99990706v29.99943c0 2.75 2.24993998 4.9999 4.99990998 4.9999h124.99532c2.75 0 5-2.2499 5-4.9999v-29.99943c0-2.74997-2.25-4.99990706-5-4.99990706zm0 .79958006c2.316 0 4.2 1.884387 4.2 4.200327v29.99943c0 2.3159-1.884 4.2003-4.2 4.2003h-124.99532c-2.31594 0-4.199505-1.8844-4.199505-4.2003v-29.99943c0-2.31594 1.883565-4.200327 4.199505-4.200327z" fill="#a2a2a1"/><path d="m106.935 30.0002h1.866v-12.5018h-1.866zm16.807-7.9981-2.139 5.4199h-.064l-2.22-5.4199h-2.01l3.33 7.5751-1.899 4.2139h1.946l5.131-11.7886zm-10.583 6.578c-.61 0-1.463-.3059-1.463-1.0617 0-.9648 1.062-1.3347 1.978-1.3347.82 0 1.207.1765 1.705.4179-.145 1.1582-1.142 1.9785-2.22 1.9785zm.226-6.8514c-1.351 0-2.75.5953-3.329 1.9141l1.656.6914c.354-.6914 1.013-.9164 1.705-.9164.965 0 1.946.5785 1.962 1.6082v.1285c-.338-.193-1.062-.4824-1.946-.4824-1.786 0-3.603.9808-3.603 2.8143 0 1.6727 1.464 2.7503 3.104 2.7503 1.254 0 1.947-.5629 2.38-1.2225h.065v.9655h1.802v-4.7933c0-2.2195-1.658-3.4577-3.796-3.4577zm-11.532 1.7953h-2.654v-4.285h2.654c1.395 0 2.187 1.1547 2.187 2.1424 0 .9688-.792 2.1426-2.187 2.1426zm-.048-6.0253h-4.4711v12.5018h1.8652v-4.7362h2.6059c2.068 0 4.101-1.4969 4.101-3.8824 0-2.3851-2.033-3.8832-4.101-3.8832zm-24.3804 11.0835c-1.2891 0-2.368-1.0797-2.368-2.5612 0-1.4988 1.0789-2.5938 2.368-2.5938 1.2727 0 2.2715 1.095 2.2715 2.5938 0 1.4815-.9988 2.5612-2.2715 2.5612zm2.1425-5.8802h-.0645c-.4186-.4993-1.2246-.9504-2.2389-.9504-2.127 0-4.0762 1.8691-4.0762 4.2694 0 2.3839 1.9492 4.2366 4.0762 4.2366 1.0143 0 1.8202-.4512 2.2389-.9664h.0645v.6117c0 1.6277-.8698 2.4972-2.2714 2.4972-1.1434 0-1.8523-.8215-2.1426-1.5141l-1.6268.6766c.4668 1.1272 1.7069 2.5132 3.7695 2.5132 2.1913 0 4.044-1.2891 4.044-4.4308v-7.6358h-1.7726zm3.0617 7.2978h1.868v-12.5018h-1.868zm4.623-4.1241c-.048-1.6433 1.2734-2.4809 2.2234-2.4809.7414 0 1.3691.3707 1.5793.902zm5.7995-1.418c-.3543-.9499-1.4335-2.7061-3.6406-2.7061-2.1913 0-4.0116 1.7237-4.0116 4.253 0 2.3844 1.8047 4.2531 4.2207 4.2531 1.9492 0 3.0773-1.1918 3.5448-1.8848l-1.45-.9667c-.4835.7089-1.1437 1.1761-2.0948 1.1761-.95 0-1.6269-.4351-2.0613-1.2889l5.6862-2.352zm-45.307-1.4011v1.8043h4.3174c-.1289 1.0149-.4672 1.7558-.9828 2.2714-.6285.6281-1.6112 1.3211-3.3347 1.3211-2.6582 0-4.7363-2.1425-4.7363-4.8007s2.0781-4.801 4.7363-4.801c1.4339 0 2.4808.564 3.2541 1.2889l1.2731-1.2729c-1.0797-1.0309-2.5133-1.8203-4.5272-1.8203-3.6414 0-6.7022 2.9643-6.7022 6.6053 0 3.6406 3.0608 6.605 6.7022 6.605 1.9652 0 3.4476-.6445 4.6073-1.8527 1.1922-1.1922 1.5629-2.8676 1.5629-4.221 0-.4184-.0325-.8051-.0969-1.1274zm11.0791 5.5256c-1.2891 0-2.4008-1.0632-2.4008-2.5776 0-1.5304 1.1117-2.5773 2.4008-2.5773 1.2886 0 2.4002 1.0469 2.4002 2.5773 0 1.5144-1.1116 2.5776-2.4002 2.5776zm0-6.8306c-2.3528 0-4.2696 1.7881-4.2696 4.253 0 2.4488 1.9168 4.2531 4.2696 4.2531 2.3518 0 4.269-1.8043 4.269-4.2531 0-2.4649-1.9172-4.253-4.269-4.253zm9.3128 6.8306c-1.2882 0-2.4003-1.0632-2.4003-2.5776 0-1.5304 1.1121-2.5773 2.4003-2.5773 1.2891 0 2.4004 1.0469 2.4004 2.5773 0 1.5144-1.1113 2.5776-2.4004 2.5776zm0-6.8306c-2.3519 0-4.2687 1.7881-4.2687 4.253 0 2.4488 1.9168 4.2531 4.2687 4.2531 2.3527 0 4.2695-1.8043 4.2695-4.2531 0-2.4649-1.9168-4.253-4.2695-4.253z" fill="#fff"/><path d="m20.7158 19.4244-10.6456 11.2995c.0004.0024.0012.0043.0016.0067.3265 1.227 1.4472 2.1305 2.7773 2.1305.5317 0 1.0308-.1438 1.4589-.3961l.034-.0199 11.9836-6.9151z" fill="#eb3131"/><path d="m31.4866 17.5006-.0102-.007-5.1737-2.9992-5.8288 5.1867 5.8491 5.8483 5.1463-2.9694c.9023-.4871 1.5148-1.4383 1.5148-2.5352 0-1.089-.6042-2.0355-1.4975-2.5242z" fill="#f6b60b"/><path d="m10.0687 9.27756c-.064.23599-.09763.48319-.09763.73984v19.9674c0 .2562.03323.5043.09803.7394l11.0131-11.0108z" fill="#5778c5"/><path d="m20.7945 20.0011 5.5105-5.5088-11.97-6.94013c-.4351-.2606-.943-.411-1.4863-.411-1.3301 0-2.4523.90511-2.7789 2.13354-.0004.0012-.0004.00203-.0004.00308z" fill="#3bad49"/><path d="m47.3942 9.78156h-2.9171v.72194h2.1859c-.0594.589-.2938 1.0515-.6891 1.3875s-.9.5047-1.4968.5047c-.6547 0-1.2094-.2281-1.664-.6812-.4454-.4625-.6719-1.0344-.6719-1.72347 0-.68898.2265-1.2609.6719-1.72336.4546-.45309 1.0093-.67968 1.664-.67968.336 0 .6563.0578.9499.18439.2938.1265.5297.3031.7141.5297l.5547-.55469c-.2516-.286-.5703-.5047-.9657-.66409-.3953-.1594-.8078-.2359-1.2531-.2359-.8734 0-1.6139.3031-2.2187.90781-.6047.60619-.9078 1.35308-.9078 2.23584 0 .88275.3031 1.63125.9078 2.23595.6047.6046 1.3453.9078 2.2187.9078.9172 0 1.6484-.2937 2.2109-.8907.4953-.4967.7484-1.1686.7484-2.0092 0-.1422-.0171-.29394-.0421-.45334zm1.1301-2.79991v6.01875h3.5139v-.7391h-2.7405v-1.9093h2.4719v-.7219h-2.4719v-1.90779h2.7405v-.74069zm8.4413.74069v-.74069h-4.1359v.74069h1.6813v5.27796h.7734v-5.27796zm3.7444-.74069h-.7734v6.01875h.7734zm5.105.74069v-.74069h-4.1358v.74069h1.6811v5.27796h.7734v-5.27796zm7.8045.04219c-.5969-.61408-1.3281-.91718-2.2015-.91718-.875 0-1.6062.30309-2.2031.90781-.5969.59689-.8905 1.34528-.8905 2.23584 0 .8906.2937 1.6391.8905 2.236.5969.6046 1.3281.9078 2.2031.9078.8656 0 1.6046-.3032 2.2015-.9078.5969-.5969.8906-1.3454.8906-2.236 0-.88276-.2937-1.62969-.8906-2.22647zm-3.8499.50309c.4453-.45309.9922-.67968 1.6484-.67968.6547 0 1.2016.2266 1.639.67968.4453.44529.664 1.02646.664 1.72336 0 .69852-.2187 1.27812-.664 1.72342-.4375.4531-.9843.6812-1.639.6812-.6562 0-1.2031-.2281-1.6484-.6812-.436-.4547-.6547-1.0249-.6547-1.72342 0-.69689.2187-1.26871.6547-1.72336zm6.578.98438-.0328-1.16101h.0328l3.0594 4.90931h.8077v-6.01871h-.7734v3.52181l.0328 1.161h-.0328l-2.9249-4.68281h-.9422v6.01871h.7734z" fill="#fff" stroke="#fff" stroke-miterlimit="10" stroke-width=".26666"/></g></svg>