<svg fill="none" height="100" viewBox="0 0 100 100" width="100" xmlns="http://www.w3.org/2000/svg"><path d="m82.666 47.373-2.7531-1.0134v-12.0904c0-.9212-.7463-1.6667-1.6667-1.6667s-1.6667.7455-1.6667 1.6667v10.8633l-7.4007-2.7244v-8.1389c0-.9212-.7462-1.6667-1.6666-1.6667-.9205 0-1.6667.7455-1.6667 1.6667v6.9119l-8.1137-2.9868c-.0607-1.1172-.1203-2.2279-.1783-3.3288-.0003-.0048.0021-.0088.0018-.0136-.0008-.0138-.0038-.0263-.0047-.0399-.203-3.8464-.389-7.5557-.5454-10.8488-.3768-6.0221-5.3687-14.28547-5.5811-14.63378-.3019-.49804-.8415-.80078-1.4233-.80078-.5819 0-1.1215.30273-1.4234.80078-.2124.34831-5.2051 8.61168-5.5835 14.65818-.1559 3.2851-.3414 6.9864-.5439 10.8257-.0009.0133-.0038.0254-.0046.0386-.0003.0047.0021.0086.0019.0132-.0573 1.0861-.1161 2.1819-.1759 3.2841l-8.117 2.9991v-6.8791c0-.9212-.7463-1.6667-1.6667-1.6667s-1.6666.7455-1.6666 1.6667v8.1107l-7.3999 2.734v-10.8447c0-.9212-.7463-1.6667-1.6667-1.6667s-1.6667.7455-1.6667 1.6667v12.0763l-2.7677 1.0227c-5.555 2.0524-9.16342 7.4056-8.98031 13.2845 0 .485.21159.9456.57861 1.263.30436.262.69092.4036 1.0881.4036.0813 0 .1635-.0065.2457-.0179l30.8426-4.6015c-.4217 6.1441-.8209 10.8307-1.1201 12.2496-1.3965 1.416-7.5114 7.4756-11.9376 9.6892-.5648.2832-.9213.8593-.9213 1.4908v8.6752c0 .5208.2442 1.0123.66 1.3281.293.2214.647.3385 1.0067.3385.1506 0 .3019-.0211.45-.0618 4.0943-1.1475 15.752-3.9307 20.4615-3.0518.2018.0391.4117.0391.6136 0 4.7111-.8821 16.3655 1.9043 20.4606 3.0518.5029.1383 1.0408.0374 1.4567-.2767.4158-.3158.66-.8073.66-1.3281v-8.6752c0-.6315-.3565-1.2076-.9213-1.4908-4.4246-2.212-10.5379-8.2699-11.9368-9.6875-.2996-1.426-.6982-6.1031-1.1194-12.2346l30.8419 4.5848c.0814.0114.1636.0179.2449.0179.3882 0 .7675-.1351 1.0686-.3873.3654-.306.5827-.752.5973-1.2273.1839-5.9261-3.431-11.2841-8.9941-13.3317zm-36.8852-12.3694c.2431-3.4357 2.8533-5.8591 4.224-6.9014 1.3722 1.0356 3.9695 3.4408 4.2149 6.8992.068 1.2981.1401 2.6546.2161 4.0564-.0475.2663-.0347.5256.042.7739.5956 10.9066 1.4004 23.9812 2.0838 29.3089h-13.1225c.7885-6.1479 1.7386-22.6098 2.3417-34.137zm.5416-10.8321c.2091-3.3463 2.2436-7.7832 3.6792-10.5419 1.4347 2.7539 3.4668 7.1809 3.6751 10.5175.0336.7067.0808 1.6915.1394 2.888-1.4808-1.505-2.8626-2.3257-2.9828-2.3948-.516-.2962-1.1491-.2962-1.6651 0-.1202.0691-1.5026.8901-2.984 2.3956.0581-1.187.1049-2.1633.1382-2.8644zm-34.5386 34.5313c.5599-3.7028 3.0835-6.875 6.6911-8.2064l23.5963-8.718c-.2426 4.3251-.4978 8.6175-.7499 12.5168zm57.7677 23.4228v5.5144c-4.3782-1.1133-14.379-3.4131-19.5507-2.6107-5.1628-.8024-15.1734 1.4958-19.5516 2.6107v-5.5144c4.6054-2.6315 10.0635-7.98 11.7196-9.6517h15.6631c1.6561 1.6717 7.1142 7.0202 11.7196 9.6517zm-10.8707-27.8131c-.2518-3.8911-.5066-8.1746-.7488-12.4926l23.5824 8.6814c3.6109 1.3297 6.1377 4.4987 6.7009 8.2015z" fill="#000"/></svg>