<svg fill="none" height="100" viewBox="0 0 100 100" width="100" xmlns="http://www.w3.org/2000/svg"><g fill="#61dafb"><path d="m97.5 49.5097c0-6.3229-7.8812-12.3151-19.9643-16.0311 2.7884-12.3735 1.5491-22.2179-3.9116-25.36965-1.2586-.7393-2.7303-1.0895-4.3375-1.0895v4.33855c.8907 0 1.6072.1751 2.2075.5058 2.6335 1.5175 3.776 7.2957 2.8852 14.7276-.213 1.8288-.5615 3.7549-.9875 5.7199-3.7954-.9339-7.9393-1.6537-12.2962-2.1206-2.6142-3.5993-5.3251-6.8677-8.0554-9.7277 6.3126-5.8949 12.238-9.1245 16.2658-9.1245v-4.3385c-5.3252 0-12.2962 3.8132-19.3447 10.428-7.0485-6.5759-14.0196-10.35018-19.3447-10.35018v4.33848c4.0084 0 9.9531 3.2102 16.2658 9.0662-2.711 2.8599-5.4219 6.1089-7.9974 9.7082-4.3762.4669-8.5201 1.1867-12.3155 2.14-.4454-1.9455-.7746-3.8326-1.0069-5.642-.9101-7.4319.213-13.2101 2.8271-14.7471.5809-.3502 1.3361-.5058 2.2269-.5058v-4.33852c-1.6266 0-3.0983.35019-4.3763 1.08949-5.4413 3.15173-6.6612 12.97663-3.8534 25.31133-12.0445 3.7354-19.8869 9.7081-19.8869 16.0116 0 6.323 7.8812 12.3152 19.9643 16.0312-2.7884 12.3735-1.5491 22.2179 3.9116 25.3696 1.2586.7393 2.7303 1.0895 4.3569 1.0895 5.3251 0 12.2961-3.8132 19.3447-10.428 7.0485 6.5759 14.0195 10.3502 19.3446 10.3502 1.6266 0 3.0983-.3502 4.3763-1.0895 5.4413-3.1518 6.6612-12.9767 3.8535-25.3113 12.0057-3.716 19.8481-9.7082 19.8481-16.0117zm-25.212-12.9766c-.7165 2.5097-1.6072 5.0972-2.6141 7.6848-.794-1.5564-1.6266-3.1128-2.5367-4.6693-.8908-1.5564-1.8396-3.0739-2.7884-4.5525 2.7497.4086 5.4025.9144 7.9392 1.537zm-8.8687 20.7198c-1.5104 2.6265-3.0595 5.1168-4.6667 7.4319-2.8853.2529-5.8093.3891-8.7526.3891-2.924 0-5.8479-.1362-8.7138-.3696-1.6072-2.3152-3.1757-4.786-4.6861-7.393-1.4717-2.5487-2.8078-5.1362-4.0277-7.7432 1.2005-2.607 2.556-5.214 4.0083-7.7627 1.5104-2.6264 3.0595-5.1167 4.6668-7.4319 2.8852-.2529 5.8092-.3891 8.7525-.3891 2.924 0 5.8479.1362 8.7138.3697 1.6072 2.3152 3.1757 4.786 4.6861 7.393 1.4717 2.5486 2.8078 5.1362 4.0277 7.7432-1.2199 2.607-2.556 5.214-4.0083 7.7626zm6.2546-2.5292c1.0456 2.607 1.9364 5.214 2.6722 7.7432-2.5367.6226-5.2089 1.1479-7.978 1.5564.9489-1.498 1.8977-3.035 2.7885-4.6108.8907-1.5565 1.7233-3.1323 2.5173-4.6888zm-19.6352 20.7588c-1.8008-1.8677-3.6017-3.9494-5.3832-6.2257 1.7428.0778 3.5243.1362 5.3251.1362 1.8203 0 3.6211-.0389 5.3832-.1362-1.7427 2.2763-3.5436 4.358-5.3251 6.2257zm-14.4068-11.4592c-2.7497-.4085-5.4026-.9143-7.9393-1.5369.7165-2.5097 1.6072-5.0973 2.6142-7.6848.7939 1.5564 1.6265 3.1128 2.5367 4.6692.9101 1.5564 1.8395 3.074 2.7884 4.5525zm14.31-40.4863c1.8009 1.8677 3.6017 3.9494 5.3832 6.2256-1.7427-.0778-3.5242-.1361-5.3251-.1361-1.8202 0-3.6211.0389-5.3832.1361 1.7428-2.2762 3.5436-4.3579 5.3251-6.2256zm-14.3294 11.4591c-.9488 1.4981-1.8977 3.035-2.7884 4.6109-.8908 1.5564-1.7234 3.1128-2.5173 4.6693-1.0457-2.607-1.9364-5.214-2.6723-7.7432 2.5367-.6031 5.209-1.1284 7.978-1.537zm-17.5244 24.358c-6.8549-2.9378-11.28928-6.7899-11.28928-9.8444 0-3.0544 4.43438-6.926 11.28928-9.8443 1.6653-.7199 3.4855-1.3619 5.3638-1.965 1.1037 3.8132 2.556 7.7821 4.3569 11.8482-1.7815 4.0467-3.2144 7.9961-4.2988 11.7899-1.917-.6031-3.7373-1.2646-5.4219-1.9844zm10.4178 27.8015c-2.6335-1.5175-3.776-7.2957-2.8852-14.7276.213-1.8288.5615-3.7548.9875-5.7198 3.7954.9338 7.9393 1.6537 12.2962 2.1206 2.6142 3.5992 5.3251 6.8677 8.0554 9.7276-6.3126 5.895-12.238 9.1245-16.2658 9.1245-.8713-.0194-1.6072-.1945-2.1881-.5253zm45.9315-14.8249c.9101 7.4319-.213 13.2102-2.8271 14.7471-.5809.3502-1.3361.5059-2.2269.5059-4.0084 0-9.9531-3.2101-16.2658-9.0662 2.711-2.8599 5.422-6.1089 7.9974-9.7082 4.3762-.4669 8.5201-1.1867 12.3155-2.14.4454 1.9649.7939 3.8521 1.0069 5.6614zm7.4552-12.9766c-1.6653.7198-3.4855 1.3619-5.3639 1.965-1.1037-3.8133-2.556-7.7821-4.3569-11.8483 1.7815-4.0467 3.2145-7.9961 4.2989-11.7899 1.917.6031 3.7372 1.2646 5.4412 1.9845 6.8549 2.9377 11.2893 6.7899 11.2893 9.8443-.0194 3.0545-4.4537 6.9261-11.3086 9.8444z"/><path d="m49.9807 58.4008c4.8874 0 8.8494-3.9807 8.8494-8.8911s-3.962-8.891-8.8494-8.891-8.8494 3.9806-8.8494 8.891 3.962 8.8911 8.8494 8.8911z"/></g></svg>