<svg fill="none" height="35" viewBox="0 0 117 35" width="117" xmlns="http://www.w3.org/2000/svg" xmlns:xlink="http://www.w3.org/1999/xlink"><clipPath id="a"><path d="m.319397 0h116.681v35h-116.681z"/></clipPath><g clip-path="url(#a)" opacity=".35"><path d="m17.809 0c-4.6413 0-9.09252 1.84374-12.37441 5.12563s-5.12563 7.73307-5.12563 12.37437 1.84374 9.0925 5.12563 12.3744 7.73311 5.1256 12.37441 5.1256c4.6412 0 9.0924-1.8437 12.3743-5.1256s5.1257-7.7331 5.1257-12.3744-1.8438-9.09248-5.1257-12.37437-7.7331-5.12563-12.3743-5.12563zm8.0238 25.2209c-.0748.1228-.1733.2295-.2897.3139s-.2484.1449-.3883.1779c-.1399.0331-.2851.038-.4269.0146-.1419-.0235-.2777-.0749-.3995-.1512-4.0956-2.5074-9.2776-3.0716-15.35825-1.6716-.14143.0338-.2882.0388-.43163.0149-.14342-.024-.28058-.0765-.40334-.1544-.12275-.078-.22862-.1798-.31132-.2994s-.14055-.2546-.17012-.3969c-.0338-.1415-.03887-.2882-.01491-.4317.02397-.1434.07648-.2806.15442-.4033.07794-.1228.17973-.2286.29934-.3113.1196-.0827.25459-.1406.39697-.1702 6.64474-1.5253 12.37014-.8567 16.98804 1.9642.1228.0749.2295.1733.3139.2897s.1449.2484.178.3884c.033.1399.0379.285.0145.4269-.0235.1418-.0748.2776-.1512.3995zm2.1523-4.7642c-.4179.6269-1.2538.8358-1.8806.4388-5.3154-2.9659-11.5901-3.7023-17.44778-2.0477-.71045.2089-1.46269-.1881-1.69254-.8985-.1044-.3436-.06849-.7146.09989-1.0318.16839-.3172.45553-.5548.79862-.6608 6.35221-1.9433 14.27161-1.003 19.66271 2.2985.6268.4179.8358 1.2538.4388 1.8806zm.1671-4.9731c-5.6417-3.3433-14.9403-3.6567-20.3313-2.0269-.41286.1237-.8579.0788-1.23775-.1248-.37985-.2037-.66358-.5495-.78912-.9618-.0644-.2057-.08733-.4222-.06746-.6369.01986-.2147.08213-.4233.18319-.6138s.23891-.359.40556-.4958.35878-.2392.56528-.3012c6.1851-1.88061 16.4657-1.50449 22.9433 2.3403.1884.1079.3534.2525.4852.4251s.2278.3699.2823.5801.0665.4293.0351.6442c-.0313.2149-.1053.4214-.2175.6073-.4597.7731-1.4627 1.0448-2.2568.5642zm19.7672.6268c-3.0298-.7104-3.5522-1.2119-3.5522-2.2776 0-1.0029.9403-1.6716 2.3403-1.6716 1.3582 0 2.7164.5015 4.1373 1.5672.0418.0417.0836.0417.1463.0417.0507-.0113.0954-.041.1253-.0835l1.4627-2.0896c.0242-.0384.0353-.0836.0315-.1289-.0037-.0452-.0221-.088-.0524-.1218-1.6716-1.35824-3.594-2.0269-5.8089-2.0269-3.2388.0209-5.5374 1.9851-5.5374 4.7851 0 3.0089 1.9642 4.0746 5.3702 4.8895 2.8836.6687 3.3642 1.2329 3.3642 2.215 0 1.1074-.9821 1.797-2.5702 1.797-1.7996-.0092-3.5244-.7216-4.8059-1.9851-.0418-.0318-.094-.0467-.1463-.0418-.0551.0008-.1077.0233-.1463.0627l-1.6507 1.9642c-.0296.0403-.0438.0898-.0399.1397.0038.0498.0254.0966.0608.1319 1.8806 1.6717 4.1791 2.5702 6.6656 2.5702 3.5105 0 5.7881-1.9224 5.7881-4.9105 0-2.5075-1.5045-3.8866-5.1821-4.7851zm13.1433-2.9253c-.7356-.0066-1.4629.1557-2.1259.4745-.6629.3188-1.2438.7856-1.698 1.3643v-1.3791c.0003-.052-.0189-.1022-.0536-.1409-.0348-.0386-.0827-.0629-.1344-.0681h-2.7165c-.0517.0052-.0996.0295-.1344.0681-.0348.0387-.0539.0889-.0536.1409v15.3373c0 .1045.0836.2089.2089.2089h2.6956c.1044 0 .2089-.1044.2089-.2089v-4.8687c.4602.554 1.039.9975 1.6936 1.2977.6547.3002 1.3684.4494 2.0885.4367 2.8418 0 5.7045-2.1941 5.7045-6.3523 0-4.1791-2.8627-6.3522-5.6836-6.3522zm2.5492 6.3522c0 2.1105-1.3164 3.594-3.197 3.594-1.8388 0-3.2388-1.5462-3.2388-3.594 0-2.0477 1.4-3.594 3.2597-3.594 1.8388 0 3.1761 1.5045 3.1761 3.594zm10.4896-6.3522c-.8509-.0196-1.6971.1315-2.4887.4444-.7916.3128-1.5125.781-2.1201 1.377-.6077.596-1.0898 1.3076-1.418 2.093-.3281.7853-.4956 1.6285-.4926 2.4796 0 3.5522 2.8418 6.3313 6.4776 6.3313.8356.0028 1.6635-.1591 2.4365-.4763s1.476-.7836 2.0687-1.3725c.5928-.5889 1.0638-1.2887 1.3861-2.0596s.4895-1.5978.4923-2.4333c.0027-.8356-.1591-1.6635-.4763-2.4365-.3173-.773-.7836-1.476-1.3725-2.0688-.5889-.5927-1.2888-1.0637-2.0597-1.386s-1.5977-.4896-2.4333-.4923zm0 9.9671c-1.9433 0-3.406-1.5462-3.406-3.6149 0-2.0895 1.4-3.5731 3.3433-3.5731 1.9642 0 3.4269 1.5462 3.4269 3.6149 0 2.0896-1.4209 3.5731-3.3642 3.5731zm14.2507-9.7164h-2.9671v-3.0507c0-.0554-.022-.1086-.0612-.1478s-.0924-.0612-.1478-.0612h-2.6955c-.0554 0-.1086.022-.1477.0612-.0392.0392-.0613.0924-.0613.1478v3.0507h-1.2955c-.0554 0-.1085.022-.1477.0612s-.0612.0924-.0612.1478v2.2985c0 .1254.1044.2089.2089.2089h1.2955v6.0179c0 2.4448 1.212 3.6777 3.615 3.6777.9612 0 1.7761-.209 2.5074-.6269.0836-.0418.1254-.1045.1254-.1881v-2.2149c-.0023-.0343-.0131-.0675-.0313-.0967-.0182-.0291-.0433-.0533-.0732-.0705-.0291-.0147-.0613-.0223-.094-.0223s-.0649.0076-.094.0223c-.4911.2523-1.0361.3813-1.5881.3762-.8776 0-1.2537-.397-1.2537-1.2747v-5.6209h2.9671c.1254 0 .209-.0835.209-.2089v-2.2985c0-.0554-.022-.1086-.0612-.1478s-.0923-.0612-.1478-.0612zm10.3851 0v-.3552c0-1.1075.4179-1.5881 1.3587-1.5881.564 0 1.023.1045 1.525.2717.063.0209.125 0 .188-.0209.026-.0195.047-.0447.061-.0737.015-.029.023-.061.023-.0935v-2.29849c.002-.04609-.012-.09158-.038-.12938s-.065-.06578-.109-.07957c-.543-.14627-1.233-.31344-2.2564-.31344-2.5075 0-3.8239 1.42088-3.8239 4.07468v.585h-1.2955c-.052-.0002-.1022.0189-.1409.0537-.0386.0347-.0629.0827-.0681.1344v2.3403c0 .1045.1045.2089.209.2089h1.2955v9.2568c0 .1253.1045.2089.2089.2089h2.7164c.1045 0 .1881-.0836.1881-.2089v-9.2777h2.5079l3.886 9.2777c-.439.982-.877 1.1701-1.463 1.1701-.521-.0136-1.031-.1573-1.483-.4179-.026-.0115-.055-.0175-.084-.0175-.028 0-.057.006-.083.0175-.043.0157-.08.045-.105.0836l-.919 2.0268c-.042.0836 0 .209.083.2508.879.4974 1.875.7499 2.884.7313 2.006 0 3.093-.9194 4.075-3.4268l4.701-12.1194c.015-.0336.021-.0706.018-.1073-.004-.0367-.017-.0718-.039-.1017-.021-.0221-.047-.0392-.076-.0501-.029-.0108-.06-.0151-.091-.0126h-2.842c-.04.0007-.079.0129-.112.0351-.034.0222-.06.0536-.076.0903l-2.883 8.2328-3.156-8.2328c-.016-.0367-.042-.0681-.075-.0903-.034-.0222-.073-.0344-.113-.0351h-4.6176zm-6.0179 0h-2.7164c-.0517.0052-.0997.0295-.1344.0681-.0348.0387-.0539.0889-.0537.1409v11.7851c0 .1253.0836.2089.209.2089h2.6955c.1045 0 .209-.0836.209-.2089v-11.806c0-.0554-.0221-.1086-.0612-.1478-.0392-.0392-.0924-.0612-.1478-.0612zm-1.3373-5.37013c-.5154 0-1.0097.20474-1.3741.56918-.3645.36443-.5692.85871-.5692 1.37415 0 .5153.2047 1.0096.5692 1.3741.3644.3644.8587.5691 1.3741.5691s1.0097-.2047 1.3741-.5691c.3644-.3645.5692-.8588.5692-1.3741 0-.51544-.2048-1.00972-.5692-1.37415-.3644-.36444-.8587-.56918-1.3741-.56918zm23.6959 9.17313c-.249 0-.495-.0493-.725-.1451-.229-.0958-.438-.2362-.613-.4131-.175-.1768-.313-.3866-.406-.6172s-.14-.4774-.137-.7261c0-1.0448.836-1.9224 1.881-1.9224.472.0495.91.2723 1.228.6253.318.3531.494.8115.494 1.2867s-.176.9335-.494 1.2866-.756.5758-1.228.6253zm0-3.6358c-.226-.0001-.45.045-.658.1327s-.396.2161-.554.3777-.282.3532-.364.5634c-.083.2102-.122.4348-.117.6605-.006.2248.034.4484.117.6575.083.209.207.3992.365.5592s.347.2864.555.3718c.208.0853.431.1278.656.1249.982 0 1.713-.7731 1.713-1.7343.006-.2248-.034-.4484-.117-.6574-.083-.2091-.207-.3993-.365-.5593-.158-.1599-.346-.2864-.555-.3717-.208-.0854-.431-.1279-.655-.125zm.418 1.9015.564.7522h-.46l-.481-.6895h-.418v.6686h-.376v-1.9851h.878c.46 0 .773.2299.773.6269.005.141-.037.2796-.121.3933-.083.1138-.203.1961-.339.2336zm-.314-.8985h-.481v.6268h.481c.251 0 .418-.1044.418-.3134s-.167-.3134-.418-.3134z" fill="#e6e6e6"/></g></svg>