<svg fill="none" height="100" viewBox="0 0 100 100" width="100" xmlns="http://www.w3.org/2000/svg"><path d="m82.1875 10h-64.375c-4.3147 0-7.8125 3.4978-7.8125 7.8125v64.375c0 4.3147 3.4978 7.8125 7.8125 7.8125h64.375c4.3147 0 7.8125-3.4978 7.8125-7.8125v-64.375c0-4.3147-3.4978-7.8125-7.8125-7.8125z" fill="#3178c6"/><path clip-rule="evenodd" d="m59.5312 73.5938v7.8125c1.2657.6563 2.8126 1.1407 4.5313 1.4688s3.5937.4844 5.4687.4844 3.5938-.1719 5.3126-.5313c1.7187-.3593 3.125-.9531 4.375-1.7187 1.2656-.8281 2.3437-1.875 2.9687-3.2813.625-1.4062 1.1094-2.9687 1.1094-5 0-1.4218-.2188-2.6562-.6407-3.75-.4218-1.0937-1.0312-2.0312-1.875-2.8125-.7968-.8281-1.7187-1.5625-2.8124-2.1875-1.0938-.625-2.3438-1.2812-3.75-1.875-1.0313-.4219-1.875-.8281-2.8126-1.2343-.8124-.4063-1.5156-.8126-2.0312-1.2188-.5781-.4219-1.0156-.8594-1.3281-1.3125-.3125-.4688-.4688-.9844-.4688-1.5625 0-.5313.1391-1.0156.4219-1.4531s.6719-.7969 1.1719-1.1094 1.125-.5469 1.875-.7188c.7343-.1718 1.5469-.25 2.5-.25.6562 0 1.3437.0485 2.0312.1469.7188.0985 1.4532.25 2.1875.4531.7344.2032 1.4532.4532 2.1875.7657.6875.3125 1.3281.6718 1.875 1.0781v-7.3438c-1.1875-.4531-2.5-.7968-3.9062-1.0156-1.4063-.2187-2.9688-.3281-4.8438-.3281s-3.5937.2031-5.3125.5937c-1.7187.3907-3.125 1.0157-4.375 1.875-1.2656.8438-2.1875 1.875-2.9687 3.2813-.7344 1.3125-1.0938 2.8125-1.0938 4.6875 0 2.3437.6719 4.375 2.0313 5.9375 1.3437 1.7187 3.4375 2.9687 6.0937 4.2187 1.0782.4375 2.0313.8751 2.9688 1.2969.9375.4219 1.7187.8594 2.3437 1.3125.6719.4531 1.2032.9531 1.5625 1.4844.3907.5312.5938 1.1562.5938 1.875 0 .5-.1219.9687-.3594 1.4062s-.6094.8126-1.1094 1.1251-1.1093.5624-1.875.7499c-.7343.1719-1.5625.2657-2.6562.2657-1.7188 0-3.4375-.2969-5-.8907-1.7188-.5937-3.2813-1.4843-4.6875-2.6562zm-13.125-19.2187h10v-6.4063h-27.9687v6.4063h10v28.5937h7.9687z" fill="#fff" fill-rule="evenodd"/></svg>